<svg xmlns="http://www.w3.org/2000/svg" xmlns:xlink="http://www.w3.org/1999/xlink" width="1024" zoomAndPan="magnify" viewBox="0 0 768 767.999994" height="1024" preserveAspectRatio="xMidYMid meet" version="1.0"><defs><clipPath id="ce14f5f1ab"><path d="M 219.226562 149.03125 L 548.476562 149.03125 L 548.476562 619 L 219.226562 619 Z M 219.226562 149.03125 " clip-rule="nonzero"/></clipPath></defs><rect x="-76.8" width="921.6" fill="#ffffff" y="-76.799999" height="921.599993" fill-opacity="1"/><rect x="-76.8" width="921.6" fill="#ffffff" y="-76.799999" height="921.599993" fill-opacity="1"/><g clip-path="url(#ce14f5f1ab)"><path fill="#000000" d="M 233.886719 572.871094 C 236.199219 575.265625 238.722656 577.402344 241.464844 579.285156 C 244.203125 581.167969 247.105469 582.753906 250.167969 584.050781 C 253.226562 585.34375 256.386719 586.320312 259.644531 586.976562 C 262.902344 587.628906 266.195312 587.953125 269.515625 587.941406 L 291.523438 587.941406 L 291.523438 613.261719 C 291.523438 613.503906 291.539062 613.742188 291.570312 613.980469 C 291.597656 614.21875 291.644531 614.453125 291.703125 614.683594 C 291.761719 614.917969 291.835938 615.144531 291.921875 615.367188 C 292.011719 615.589844 292.113281 615.808594 292.226562 616.015625 C 292.34375 616.226562 292.46875 616.429688 292.609375 616.625 C 292.75 616.816406 292.902344 617.003906 293.066406 617.175781 C 293.230469 617.351562 293.402344 617.515625 293.585938 617.671875 C 293.769531 617.824219 293.964844 617.964844 294.164062 618.09375 C 294.367188 618.222656 294.578125 618.339844 294.792969 618.441406 C 295.007812 618.542969 295.230469 618.632812 295.457031 618.707031 C 295.683594 618.78125 295.917969 618.84375 296.152344 618.886719 C 296.386719 618.933594 296.621094 618.964844 296.863281 618.980469 C 297.101562 618.996094 297.339844 619 297.578125 618.984375 C 297.816406 618.972656 298.054688 618.941406 298.289062 618.898438 C 298.523438 618.855469 298.757812 618.796875 298.984375 618.722656 C 299.210938 618.652344 299.433594 618.5625 299.652344 618.464844 L 328.144531 605.234375 L 356.636719 618.464844 C 356.855469 618.5625 357.074219 618.652344 357.304688 618.722656 C 357.53125 618.796875 357.765625 618.855469 358 618.898438 C 358.234375 618.941406 358.472656 618.972656 358.710938 618.984375 C 358.949219 619 359.1875 618.996094 359.425781 618.980469 C 359.664062 618.964844 359.902344 618.933594 360.136719 618.886719 C 360.371094 618.84375 360.601562 618.78125 360.832031 618.707031 C 361.058594 618.632812 361.28125 618.542969 361.496094 618.441406 C 361.710938 618.339844 361.921875 618.222656 362.121094 618.09375 C 362.324219 617.964844 362.515625 617.824219 362.703125 617.671875 C 362.886719 617.515625 363.058594 617.351562 363.222656 617.175781 C 363.386719 617.003906 363.539062 616.816406 363.679688 616.625 C 363.820312 616.429688 363.945312 616.226562 364.0625 616.015625 C 364.175781 615.808594 364.277344 615.589844 364.367188 615.367188 C 364.453125 615.144531 364.527344 614.917969 364.585938 614.683594 C 364.644531 614.453125 364.691406 614.21875 364.71875 613.980469 C 364.75 613.742188 364.765625 613.503906 364.765625 613.261719 L 364.765625 543.890625 L 509.269531 543.890625 C 509.5 547.925781 510.246094 551.867188 511.5 555.710938 L 382.125 555.710938 C 381.746094 555.710938 381.375 555.75 381.007812 555.820312 C 380.640625 555.894531 380.28125 556.003906 379.933594 556.148438 C 379.585938 556.292969 379.257812 556.46875 378.945312 556.675781 C 378.632812 556.886719 378.34375 557.125 378.078125 557.390625 C 377.8125 557.65625 377.574219 557.945312 377.367188 558.257812 C 377.15625 558.570312 376.980469 558.902344 376.835938 559.25 C 376.691406 559.597656 376.585938 559.957031 376.511719 560.324219 C 376.4375 560.695312 376.402344 561.066406 376.402344 561.441406 C 376.402344 561.820312 376.4375 562.191406 376.511719 562.5625 C 376.585938 562.929688 376.691406 563.289062 376.835938 563.636719 C 376.980469 563.984375 377.15625 564.3125 377.367188 564.625 C 377.574219 564.941406 377.8125 565.230469 378.078125 565.496094 C 378.34375 565.761719 378.632812 566 378.945312 566.207031 C 379.257812 566.417969 379.585938 566.59375 379.933594 566.738281 C 380.28125 566.882812 380.640625 566.992188 381.007812 567.0625 C 381.375 567.136719 381.746094 567.175781 382.125 567.175781 L 531.660156 567.175781 C 532.003906 567.175781 532.34375 567.207031 532.679688 567.273438 C 533.015625 567.34375 533.339844 567.441406 533.65625 567.574219 C 533.972656 567.703125 534.273438 567.863281 534.558594 568.054688 C 534.839844 568.246094 535.105469 568.460938 535.347656 568.703125 C 535.589844 568.945312 535.804688 569.210938 535.996094 569.496094 C 536.183594 569.78125 536.347656 570.082031 536.476562 570.398438 C 536.609375 570.714844 536.707031 571.039062 536.773438 571.378906 C 536.839844 571.714844 536.875 572.050781 536.875 572.394531 L 536.875 576.480469 L 382.125 576.480469 C 381.746094 576.480469 381.375 576.515625 381.007812 576.589844 C 380.640625 576.664062 380.28125 576.769531 379.933594 576.914062 C 379.585938 577.058594 379.257812 577.234375 378.945312 577.445312 C 378.632812 577.652344 378.34375 577.890625 378.078125 578.15625 C 377.8125 578.421875 377.574219 578.714844 377.367188 579.027344 C 377.15625 579.339844 376.980469 579.667969 376.835938 580.015625 C 376.691406 580.363281 376.585938 580.722656 376.511719 581.09375 C 376.4375 581.460938 376.402344 581.832031 376.402344 582.210938 C 376.402344 582.585938 376.4375 582.960938 376.511719 583.328125 C 376.585938 583.699219 376.691406 584.054688 376.835938 584.402344 C 376.980469 584.75 377.15625 585.082031 377.367188 585.394531 C 377.574219 585.707031 377.8125 585.996094 378.078125 586.261719 C 378.34375 586.527344 378.632812 586.765625 378.945312 586.976562 C 379.257812 587.183594 379.585938 587.359375 379.933594 587.503906 C 380.28125 587.648438 380.640625 587.757812 381.007812 587.832031 C 381.375 587.90625 381.746094 587.941406 382.125 587.941406 L 542.597656 587.941406 C 542.972656 587.941406 543.34375 587.90625 543.714844 587.832031 C 544.082031 587.757812 544.441406 587.648438 544.789062 587.503906 C 545.132812 587.359375 545.464844 587.183594 545.777344 586.976562 C 546.089844 586.765625 546.378906 586.527344 546.644531 586.261719 C 546.910156 585.996094 547.144531 585.707031 547.355469 585.394531 C 547.5625 585.082031 547.738281 584.75 547.882812 584.402344 C 548.027344 584.054688 548.136719 583.699219 548.210938 583.328125 C 548.28125 582.960938 548.320312 582.585938 548.320312 582.210938 L 548.320312 572.394531 C 548.320312 571.847656 548.292969 571.304688 548.238281 570.761719 C 548.183594 570.21875 548.101562 569.675781 547.996094 569.140625 C 547.890625 568.605469 547.757812 568.078125 547.597656 567.554688 C 547.441406 567.03125 547.253906 566.519531 547.046875 566.011719 C 546.835938 565.507812 546.605469 565.015625 546.347656 564.535156 C 546.089844 564.050781 545.808594 563.585938 545.507812 563.128906 C 545.203125 562.675781 544.878906 562.238281 544.53125 561.816406 C 544.1875 561.394531 543.820312 560.988281 543.433594 560.605469 C 543.050781 560.21875 542.644531 559.851562 542.222656 559.503906 C 541.804688 559.15625 541.367188 558.832031 540.910156 558.527344 C 540.457031 558.226562 539.992188 557.945312 539.511719 557.6875 C 539.03125 557.429688 538.539062 557.195312 538.035156 556.988281 C 537.53125 556.777344 537.015625 556.59375 536.496094 556.433594 C 535.972656 556.273438 535.445312 556.140625 534.910156 556.035156 C 534.375 555.929688 533.835938 555.847656 533.292969 555.792969 C 532.75 555.738281 532.207031 555.710938 531.660156 555.710938 L 523.808594 555.710938 C 517.839844 542.816406 521.789062 528.976562 524.09375 522.960938 L 531.65625 522.960938 C 532.203125 522.960938 532.746094 522.933594 533.289062 522.878906 C 533.832031 522.824219 534.371094 522.742188 534.90625 522.636719 C 535.441406 522.53125 535.96875 522.398438 536.492188 522.238281 C 537.011719 522.078125 537.527344 521.894531 538.03125 521.683594 C 538.53125 521.476562 539.027344 521.242188 539.507812 520.984375 C 539.988281 520.726562 540.453125 520.445312 540.90625 520.144531 C 541.359375 519.839844 541.796875 519.515625 542.21875 519.167969 C 542.640625 518.820312 543.046875 518.453125 543.429688 518.066406 C 543.816406 517.683594 544.183594 517.277344 544.527344 516.855469 C 544.875 516.433594 545.199219 515.996094 545.503906 515.542969 C 545.804688 515.085938 546.085938 514.621094 546.34375 514.136719 C 546.601562 513.65625 546.832031 513.164062 547.042969 512.660156 C 547.25 512.152344 547.433594 511.640625 547.59375 511.117188 C 547.753906 510.59375 547.886719 510.066406 547.992188 509.53125 C 548.097656 508.996094 548.179688 508.453125 548.234375 507.910156 C 548.289062 507.367188 548.316406 506.824219 548.316406 506.277344 L 548.316406 154.761719 C 548.316406 154.386719 548.277344 154.011719 548.207031 153.644531 C 548.132812 153.277344 548.023438 152.917969 547.878906 152.570312 C 547.734375 152.222656 547.558594 151.890625 547.351562 151.578125 C 547.140625 151.265625 546.90625 150.976562 546.640625 150.710938 C 546.375 150.445312 546.085938 150.207031 545.773438 149.996094 C 545.460938 149.789062 545.128906 149.613281 544.78125 149.46875 C 544.4375 149.324219 544.078125 149.214844 543.710938 149.140625 C 543.339844 149.066406 542.96875 149.03125 542.59375 149.03125 L 270.433594 149.03125 C 270.332031 149.03125 270.242188 149.054688 270.148438 149.058594 C 270.050781 149.0625 269.96875 149.050781 269.878906 149.058594 C 267.121094 149.320312 264.40625 149.796875 261.722656 150.484375 C 259.042969 151.175781 256.433594 152.070312 253.894531 153.167969 C 251.355469 154.269531 248.914062 155.5625 246.578125 157.042969 C 244.238281 158.527344 242.03125 160.183594 239.953125 162.015625 C 238.363281 163.414062 236.851562 164.898438 235.417969 166.460938 C 233.984375 168.023438 232.640625 169.65625 231.382812 171.367188 C 230.125 173.074219 228.960938 174.84375 227.894531 176.675781 C 226.824219 178.507812 225.859375 180.394531 224.992188 182.328125 C 224.128906 184.265625 223.367188 186.242188 222.714844 188.261719 C 222.0625 190.28125 221.515625 192.328125 221.082031 194.402344 C 220.648438 196.480469 220.328125 198.574219 220.117188 200.6875 C 219.90625 202.796875 219.8125 204.914062 219.828125 207.035156 L 219.828125 536.9375 C 219.738281 540.25 219.976562 543.539062 220.546875 546.804688 C 221.113281 550.074219 222.003906 553.25 223.210938 556.335938 C 224.417969 559.421875 225.921875 562.359375 227.71875 565.140625 C 229.515625 567.925781 231.574219 570.503906 233.886719 572.871094 Z M 353.320312 604.289062 L 330.550781 593.71875 C 329.789062 593.363281 328.988281 593.183594 328.144531 593.183594 C 327.304688 593.183594 326.5 593.363281 325.738281 593.71875 L 302.96875 604.289062 L 302.96875 543.890625 L 353.324219 543.890625 Z M 509.800781 532.425781 L 275.628906 532.425781 C 275.253906 532.425781 274.882812 532.464844 274.511719 532.535156 C 274.144531 532.609375 273.789062 532.71875 273.441406 532.863281 C 273.09375 533.007812 272.761719 533.183594 272.449219 533.394531 C 272.136719 533.601562 271.847656 533.839844 271.582031 534.105469 C 271.316406 534.371094 271.082031 534.660156 270.871094 534.972656 C 270.664062 535.285156 270.488281 535.617188 270.34375 535.964844 C 270.199219 536.3125 270.089844 536.671875 270.019531 537.039062 C 269.945312 537.410156 269.90625 537.78125 269.90625 538.15625 C 269.90625 538.535156 269.945312 538.90625 270.019531 539.277344 C 270.089844 539.644531 270.199219 540.003906 270.34375 540.351562 C 270.488281 540.699219 270.664062 541.03125 270.871094 541.34375 C 271.082031 541.65625 271.316406 541.945312 271.582031 542.210938 C 271.847656 542.476562 272.136719 542.714844 272.449219 542.921875 C 272.761719 543.132812 273.09375 543.308594 273.441406 543.453125 C 273.789062 543.597656 274.144531 543.707031 274.511719 543.777344 C 274.882812 543.851562 275.253906 543.890625 275.628906 543.890625 L 291.523438 543.890625 L 291.523438 555.710938 L 269.515625 555.710938 C 268.964844 555.710938 268.414062 555.683594 267.863281 555.628906 C 267.316406 555.570312 266.769531 555.488281 266.230469 555.378906 C 265.6875 555.265625 265.15625 555.128906 264.628906 554.960938 C 264.101562 554.796875 263.582031 554.605469 263.078125 554.386719 C 262.570312 554.167969 262.074219 553.925781 261.589844 553.660156 C 261.109375 553.390625 260.640625 553.097656 260.1875 552.78125 C 259.734375 552.46875 259.296875 552.128906 258.878906 551.769531 C 258.457031 551.410156 258.058594 551.03125 257.675781 550.628906 C 257.296875 550.226562 256.9375 549.808594 256.597656 549.371094 C 256.261719 548.9375 255.945312 548.484375 255.652344 548.015625 C 255.359375 547.542969 255.089844 547.0625 254.847656 546.566406 C 254.605469 546.070312 254.386719 545.5625 254.191406 545.042969 C 254 544.527344 253.835938 544 253.695312 543.464844 C 253.554688 542.929688 253.445312 542.386719 253.359375 541.839844 C 253.277344 541.296875 253.21875 540.746094 253.191406 540.191406 C 253.160156 539.640625 253.160156 539.089844 253.1875 538.535156 C 253.269531 537.480469 253.449219 536.441406 253.726562 535.417969 C 254.003906 534.394531 254.371094 533.40625 254.835938 532.453125 C 255.300781 531.5 255.847656 530.597656 256.480469 529.75 C 257.113281 528.898438 257.816406 528.117188 258.597656 527.402344 C 259.378906 526.683594 260.21875 526.046875 261.117188 525.488281 C 262.015625 524.929688 262.960938 524.460938 263.949219 524.082031 C 264.9375 523.703125 265.949219 523.417969 266.992188 523.230469 C 268.03125 523.039062 269.082031 522.949219 270.140625 522.960938 L 511.960938 522.960938 C 511 526.0625 510.28125 529.214844 509.800781 532.425781 Z M 536.875 506.277344 C 536.875 506.621094 536.839844 506.957031 536.773438 507.292969 C 536.707031 507.628906 536.609375 507.957031 536.476562 508.273438 C 536.34375 508.589844 536.183594 508.890625 535.996094 509.175781 C 535.804688 509.460938 535.589844 509.722656 535.347656 509.964844 C 535.105469 510.210938 534.839844 510.425781 534.558594 510.617188 C 534.273438 510.804688 533.972656 510.96875 533.65625 511.097656 C 533.339844 511.230469 533.015625 511.328125 532.679688 511.394531 C 532.34375 511.464844 532.003906 511.496094 531.660156 511.496094 L 270.140625 511.496094 C 269.246094 511.488281 268.355469 511.519531 267.464844 511.589844 C 266.574219 511.664062 265.691406 511.78125 264.8125 511.941406 C 263.933594 512.097656 263.0625 512.296875 262.203125 512.539062 C 261.34375 512.78125 260.496094 513.0625 259.660156 513.386719 C 258.828125 513.710938 258.011719 514.070312 257.214844 514.472656 C 256.414062 514.871094 255.636719 515.308594 254.878906 515.785156 C 254.121094 516.261719 253.390625 516.769531 252.683594 517.316406 C 251.972656 517.859375 251.292969 518.4375 250.640625 519.046875 C 249.984375 519.660156 249.363281 520.296875 248.769531 520.96875 C 248.175781 521.636719 247.617188 522.335938 247.09375 523.058594 C 246.566406 523.78125 246.074219 524.527344 245.621094 525.296875 C 245.167969 526.066406 244.75 526.855469 244.371094 527.667969 C 243.988281 528.476562 243.648438 529.304688 243.347656 530.144531 C 243.046875 530.988281 242.789062 531.84375 242.570312 532.710938 C 242.347656 533.578125 242.171875 534.453125 242.035156 535.339844 C 241.898438 536.222656 241.804688 537.113281 241.753906 538.003906 C 241.710938 538.945312 241.710938 539.882812 241.761719 540.820312 C 241.8125 541.757812 241.910156 542.691406 242.054688 543.621094 C 242.199219 544.550781 242.386719 545.46875 242.625 546.378906 C 242.863281 547.285156 243.144531 548.179688 243.472656 549.0625 C 243.800781 549.941406 244.171875 550.804688 244.585938 551.648438 C 245 552.488281 245.457031 553.308594 245.953125 554.105469 C 246.453125 554.902344 246.988281 555.671875 247.5625 556.414062 C 248.140625 557.15625 248.75 557.867188 249.398438 558.546875 C 250.042969 559.226562 250.722656 559.875 251.4375 560.484375 C 252.148438 561.097656 252.890625 561.671875 253.660156 562.207031 C 254.433594 562.742188 255.226562 563.238281 256.046875 563.695312 C 256.871094 564.148438 257.710938 564.5625 258.574219 564.933594 C 259.433594 565.300781 260.3125 565.628906 261.210938 565.90625 C 262.105469 566.1875 263.011719 566.425781 263.929688 566.613281 C 264.851562 566.800781 265.777344 566.945312 266.710938 567.039062 C 267.644531 567.132812 268.578125 567.179688 269.515625 567.179688 L 291.523438 567.179688 L 291.523438 576.484375 L 269.515625 576.484375 C 268.242188 576.484375 266.96875 576.421875 265.699219 576.292969 C 264.429688 576.167969 263.171875 575.976562 261.921875 575.722656 C 260.671875 575.46875 259.433594 575.152344 258.214844 574.777344 C 256.996094 574.398438 255.800781 573.960938 254.625 573.464844 C 253.449219 572.96875 252.304688 572.414062 251.183594 571.800781 C 250.0625 571.1875 248.976562 570.523438 247.925781 569.800781 C 246.871094 569.078125 245.855469 568.308594 244.878906 567.484375 C 243.90625 566.664062 242.972656 565.792969 242.082031 564.878906 C 241.195312 563.960938 240.351562 563.003906 239.558594 562.003906 C 238.765625 561.003906 238.023438 559.964844 237.332031 558.890625 C 236.644531 557.816406 236.007812 556.707031 235.429688 555.570312 C 234.851562 554.433594 234.328125 553.269531 233.867188 552.078125 C 233.402344 550.886719 233 549.675781 232.65625 548.445312 C 232.316406 547.214844 232.035156 545.96875 231.816406 544.710938 C 231.601562 543.453125 231.445312 542.183594 231.355469 540.910156 C 231.261719 539.636719 231.234375 538.359375 231.269531 537.082031 C 231.832031 516.546875 249.402344 499.84375 270.433594 499.84375 L 536.875 499.84375 Z M 247.433594 170.683594 C 249.914062 168.503906 252.613281 166.640625 255.535156 165.097656 C 258.453125 163.558594 261.511719 162.375 264.710938 161.558594 L 264.710938 466.628906 C 264.710938 467.003906 264.746094 467.375 264.820312 467.746094 C 264.894531 468.113281 265.003906 468.472656 265.144531 468.820312 C 265.289062 469.167969 265.464844 469.5 265.675781 469.8125 C 265.882812 470.125 266.121094 470.414062 266.386719 470.679688 C 266.652344 470.945312 266.941406 471.183594 267.253906 471.394531 C 267.566406 471.601562 267.894531 471.777344 268.242188 471.921875 C 268.589844 472.066406 268.949219 472.175781 269.316406 472.25 C 269.683594 472.320312 270.058594 472.359375 270.433594 472.359375 C 270.808594 472.359375 271.179688 472.320312 271.550781 472.25 C 271.917969 472.175781 272.273438 472.066406 272.621094 471.921875 C 272.96875 471.777344 273.300781 471.601562 273.613281 471.394531 C 273.925781 471.183594 274.214844 470.945312 274.480469 470.679688 C 274.746094 470.414062 274.980469 470.125 275.191406 469.8125 C 275.398438 469.5 275.574219 469.167969 275.71875 468.820312 C 275.863281 468.472656 275.972656 468.113281 276.046875 467.746094 C 276.117188 467.375 276.15625 467.003906 276.15625 466.628906 L 276.15625 160.492188 L 536.875 160.492188 L 536.875 488.375 L 270.433594 488.375 C 268.570312 488.378906 266.710938 488.484375 264.859375 488.691406 C 263.007812 488.898438 261.171875 489.207031 259.355469 489.613281 C 257.535156 490.023438 255.746094 490.527344 253.980469 491.132812 C 252.21875 491.738281 250.496094 492.4375 248.808594 493.230469 C 247.121094 494.023438 245.484375 494.90625 243.894531 495.882812 C 242.304688 496.855469 240.769531 497.914062 239.296875 499.054688 C 237.820312 500.195312 236.414062 501.414062 235.074219 502.710938 C 233.730469 504.003906 232.464844 505.371094 231.273438 506.804688 L 231.273438 207.035156 C 231.238281 203.601562 231.570312 200.207031 232.265625 196.84375 C 232.960938 193.484375 234.003906 190.234375 235.398438 187.097656 C 236.792969 183.960938 238.507812 181.007812 240.535156 178.242188 C 242.5625 175.476562 244.863281 172.957031 247.433594 170.683594 Z M 247.433594 170.683594 " fill-opacity="1" fill-rule="nonzero"/></g></svg>