<svg xmlns="http://www.w3.org/2000/svg" xmlns:xlink="http://www.w3.org/1999/xlink" width="1024" zoomAndPan="magnify" viewBox="0 0 768 767.999994" height="1024" preserveAspectRatio="xMidYMid meet" version="1.0"><defs><clipPath id="abb2cf93a4"><path d="M 201.070312 171.289062 L 567.070312 171.289062 L 567.070312 596.539062 L 201.070312 596.539062 Z M 201.070312 171.289062 " clip-rule="nonzero"/></clipPath></defs><rect x="-76.8" width="921.6" fill="#ffffff" y="-76.799999" height="921.599993" fill-opacity="1"/><rect x="-76.8" width="921.6" fill="#ffffff" y="-76.799999" height="921.599993" fill-opacity="1"/><g clip-path="url(#abb2cf93a4)"><path fill="#000000" d="M 255.804688 257.863281 L 213.953125 257.863281 L 213.953125 277.167969 L 255.804688 277.167969 Z M 255.804688 335.464844 L 213.953125 335.464844 L 213.953125 354.765625 L 255.804688 354.765625 Z M 255.804688 413.0625 L 213.953125 413.0625 L 213.953125 432.363281 L 255.804688 432.363281 Z M 255.804688 490.660156 L 213.953125 490.660156 L 213.953125 509.960938 L 255.804688 509.960938 Z M 228.441406 244.996094 L 228.441406 201.121094 C 228.441406 192.996094 231.761719 185.613281 237.113281 180.261719 C 242.46875 174.914062 249.855469 171.59375 257.988281 171.59375 L 537.515625 171.59375 C 545.648438 171.59375 553.035156 174.914062 558.386719 180.261719 C 563.738281 185.613281 567.0625 192.996094 567.0625 201.121094 L 567.0625 566.707031 C 567.0625 574.835938 563.738281 582.214844 558.386719 587.566406 C 553.035156 592.914062 545.648438 596.234375 537.515625 596.234375 L 257.988281 596.234375 C 249.855469 596.234375 242.46875 592.914062 237.113281 587.566406 C 231.761719 582.214844 228.441406 574.835938 228.441406 566.707031 L 228.441406 522.832031 L 211.417969 522.832031 C 208.566406 522.832031 205.980469 521.667969 204.109375 519.800781 C 202.238281 517.929688 201.074219 515.34375 201.074219 512.496094 L 201.074219 488.128906 C 201.074219 485.308594 202.234375 482.734375 204.109375 480.851562 L 204.132812 480.824219 C 206.019531 478.953125 208.597656 477.792969 211.417969 477.792969 L 228.441406 477.792969 L 228.441406 445.230469 L 211.417969 445.230469 C 208.566406 445.230469 205.980469 444.070312 204.109375 442.199219 C 202.234375 440.332031 201.074219 437.746094 201.074219 434.894531 L 201.074219 410.53125 C 201.074219 407.710938 202.234375 405.132812 204.109375 403.25 L 204.132812 403.226562 C 206.015625 401.355469 208.59375 400.195312 211.417969 400.195312 L 228.4375 400.195312 L 228.4375 367.632812 L 211.417969 367.632812 C 208.566406 367.632812 205.980469 366.46875 204.105469 364.601562 C 202.234375 362.730469 201.074219 360.144531 201.074219 357.296875 L 201.074219 332.929688 C 201.074219 330.109375 202.234375 327.535156 204.105469 325.652344 L 204.132812 325.625 C 206.015625 323.753906 208.59375 322.59375 211.417969 322.59375 L 228.4375 322.59375 L 228.4375 290.03125 L 211.417969 290.03125 C 208.566406 290.03125 205.976562 288.871094 204.105469 287 C 202.234375 285.132812 201.070312 282.546875 201.070312 279.695312 L 201.070312 255.332031 C 201.070312 252.511719 202.234375 249.933594 204.105469 248.050781 L 204.132812 248.027344 C 206.015625 246.15625 208.59375 244.992188 211.417969 244.992188 L 228.4375 244.992188 Z M 292.851562 583.363281 L 257.988281 583.363281 C 253.410156 583.363281 249.242188 581.488281 246.21875 578.464844 C 243.195312 575.445312 241.316406 571.28125 241.316406 566.707031 L 241.316406 522.832031 L 258.335938 522.832031 C 261.171875 522.832031 263.75 521.667969 265.625 519.800781 L 265.648438 519.773438 C 267.519531 517.90625 268.679688 515.328125 268.679688 512.492188 L 268.679688 488.128906 C 268.679688 485.28125 267.519531 482.695312 265.648438 480.824219 C 263.777344 478.953125 261.1875 477.792969 258.335938 477.792969 L 241.316406 477.792969 L 241.316406 445.230469 L 258.335938 445.230469 C 261.171875 445.230469 263.75 444.070312 265.621094 442.199219 L 265.648438 442.175781 C 267.519531 440.304688 268.679688 437.726562 268.679688 434.894531 L 268.679688 410.53125 C 268.679688 407.679688 267.519531 405.09375 265.648438 403.226562 C 263.777344 401.355469 261.1875 400.195312 258.335938 400.195312 L 241.316406 400.195312 L 241.316406 367.632812 L 258.335938 367.632812 C 261.171875 367.632812 263.75 366.46875 265.621094 364.601562 L 265.644531 364.574219 C 267.519531 362.707031 268.679688 360.128906 268.679688 357.296875 L 268.679688 332.933594 C 268.679688 330.082031 267.515625 327.496094 265.644531 325.625 C 263.773438 323.757812 261.1875 322.59375 258.335938 322.59375 L 241.3125 322.59375 L 241.3125 290.03125 L 258.335938 290.03125 C 261.167969 290.03125 263.75 288.871094 265.621094 287.003906 L 265.644531 286.976562 C 267.515625 285.105469 268.679688 282.527344 268.679688 279.695312 L 268.679688 255.332031 C 268.679688 252.484375 267.515625 249.898438 265.644531 248.027344 C 263.773438 246.15625 261.1875 244.996094 258.335938 244.996094 L 241.3125 244.996094 L 241.3125 201.117188 C 241.3125 196.542969 243.191406 192.378906 246.214844 189.359375 C 249.238281 186.335938 253.40625 184.460938 257.984375 184.460938 L 292.847656 184.460938 L 292.847656 583.359375 Z M 305.730469 184.464844 L 305.730469 583.363281 L 537.515625 583.363281 C 542.09375 583.363281 546.257812 581.488281 549.28125 578.464844 C 552.308594 575.445312 554.183594 571.28125 554.183594 566.707031 L 554.183594 201.121094 C 554.183594 196.546875 552.308594 192.382812 549.28125 189.363281 C 546.257812 186.339844 542.09375 184.464844 537.515625 184.464844 Z M 489.699219 283.863281 L 358.152344 283.863281 L 358.152344 347.949219 L 489.699219 347.949219 Z M 351.710938 270.996094 C 348.15625 270.996094 345.273438 273.878906 345.273438 277.429688 L 345.273438 354.382812 C 345.273438 357.933594 348.15625 360.816406 351.710938 360.816406 L 496.136719 360.816406 C 499.695312 360.816406 502.578125 357.9375 502.578125 354.382812 L 502.578125 277.429688 C 502.578125 273.878906 499.695312 270.996094 496.136719 270.996094 Z M 351.710938 450.746094 L 496.136719 450.746094 C 499.695312 450.746094 502.578125 447.867188 502.578125 444.3125 C 502.578125 440.757812 499.695312 437.878906 496.136719 437.878906 L 351.710938 437.878906 C 348.15625 437.878906 345.273438 440.757812 345.273438 444.3125 C 345.273438 447.867188 348.15625 450.746094 351.710938 450.746094 Z M 351.710938 500.882812 L 496.136719 500.882812 C 499.695312 500.882812 502.578125 498.003906 502.578125 494.449219 C 502.578125 490.898438 499.695312 488.015625 496.136719 488.015625 L 351.710938 488.015625 C 348.15625 488.015625 345.273438 490.898438 345.273438 494.449219 C 345.273438 498.003906 348.15625 500.882812 351.710938 500.882812 Z M 351.710938 500.882812 " fill-opacity="1" fill-rule="evenodd"/></g></svg>