<svg xmlns="http://www.w3.org/2000/svg" xmlns:xlink="http://www.w3.org/1999/xlink" width="1024" zoomAndPan="magnify" viewBox="0 0 768 767.999994" height="1024" preserveAspectRatio="xMidYMid meet" version="1.0"><defs><clipPath id="838e6d6472"><path d="M 214.40625 187 L 553.40625 187 L 553.40625 581.296875 L 214.40625 581.296875 Z M 214.40625 187 " clip-rule="nonzero"/></clipPath><clipPath id="c2fe9707df"><path d="M 465 492 L 551 492 L 551 581.105469 L 465 581.105469 Z M 465 492 " clip-rule="nonzero"/></clipPath><clipPath id="e29b9ab318"><path d="M 419 426.605469 L 515 426.605469 L 515 493 L 419 493 Z M 419 426.605469 " clip-rule="nonzero"/></clipPath></defs><rect x="-76.8" width="921.6" fill="#ffffff" y="-76.799999" height="921.599993" fill-opacity="1"/><rect x="-76.8" width="921.6" fill="#ffffff" y="-76.799999" height="921.599993" fill-opacity="1"/><g clip-path="url(#838e6d6472)"><path fill="#000000" d="M 265.105469 267.109375 L 226.339844 267.109375 L 226.339844 285.015625 L 265.105469 285.015625 Z M 265.105469 339.101562 L 226.339844 339.101562 L 226.339844 357.007812 L 265.105469 357.007812 Z M 265.105469 411.089844 L 226.339844 411.089844 L 226.339844 428.996094 L 265.105469 428.996094 Z M 265.105469 483.078125 L 226.339844 483.078125 L 226.339844 500.984375 L 265.105469 500.984375 Z M 239.757812 255.175781 L 239.757812 214.46875 C 239.757812 206.929688 242.835938 200.082031 247.792969 195.121094 C 252.75 190.160156 259.59375 187.078125 267.128906 187.078125 L 526.03125 187.078125 C 533.5625 187.078125 540.410156 190.160156 545.367188 195.121094 C 550.324219 200.082031 553.398438 206.929688 553.398438 214.46875 L 553.398438 553.625 C 553.398438 561.164062 550.324219 568.011719 545.367188 572.976562 C 540.410156 577.9375 533.5625 581.015625 526.03125 581.015625 L 267.128906 581.015625 C 259.59375 581.015625 252.75 577.9375 247.792969 572.976562 C 242.835938 568.011719 239.757812 561.164062 239.757812 553.625 L 239.757812 512.921875 L 223.992188 512.921875 C 221.351562 512.921875 218.957031 511.84375 217.222656 510.109375 C 215.488281 508.375 214.410156 505.976562 214.410156 503.332031 L 214.410156 480.730469 C 214.410156 478.113281 215.488281 475.722656 217.222656 473.976562 L 217.246094 473.953125 C 218.992188 472.214844 221.378906 471.140625 223.992188 471.140625 L 239.757812 471.140625 L 239.757812 440.933594 L 223.992188 440.933594 C 221.351562 440.933594 218.953125 439.855469 217.222656 438.121094 C 215.488281 436.386719 214.410156 433.984375 214.410156 431.34375 L 214.410156 408.738281 C 214.410156 406.125 215.488281 403.734375 217.222656 401.984375 L 217.242188 401.960938 C 218.988281 400.226562 221.378906 399.148438 223.992188 399.148438 L 239.757812 399.148438 L 239.757812 368.941406 L 223.992188 368.941406 C 221.351562 368.941406 218.953125 367.863281 217.21875 366.128906 C 215.488281 364.394531 214.410156 361.996094 214.410156 359.351562 L 214.410156 336.75 C 214.410156 334.132812 215.484375 331.742188 217.21875 329.996094 L 217.242188 329.972656 C 218.988281 328.238281 221.375 327.160156 223.992188 327.160156 L 239.757812 327.160156 L 239.757812 296.953125 L 223.992188 296.953125 C 221.351562 296.953125 218.953125 295.875 217.21875 294.140625 C 215.484375 292.40625 214.410156 290.007812 214.410156 287.363281 L 214.410156 264.761719 C 214.410156 262.144531 215.484375 259.753906 217.21875 258.007812 L 217.242188 257.984375 C 218.988281 256.246094 221.375 255.171875 223.988281 255.171875 L 239.753906 255.171875 Z M 299.417969 569.078125 L 267.125 569.078125 C 262.886719 569.078125 259.027344 567.339844 256.226562 564.535156 C 253.425781 561.730469 251.683594 557.867188 251.683594 553.625 L 251.683594 512.921875 L 267.449219 512.921875 C 270.074219 512.921875 272.464844 511.84375 274.199219 510.109375 L 274.222656 510.085938 C 275.953125 508.351562 277.03125 505.960938 277.03125 503.332031 L 277.03125 480.726562 C 277.03125 478.085938 275.953125 475.6875 274.222656 473.949219 C 272.488281 472.214844 270.089844 471.136719 267.449219 471.136719 L 251.683594 471.136719 L 251.683594 440.929688 L 267.449219 440.929688 C 270.074219 440.929688 272.464844 439.851562 274.199219 438.121094 L 274.21875 438.097656 C 275.953125 436.359375 277.03125 433.96875 277.03125 431.34375 L 277.03125 408.738281 C 277.03125 406.097656 275.953125 403.699219 274.21875 401.960938 C 272.488281 400.226562 270.089844 399.148438 267.449219 399.148438 L 251.683594 399.148438 L 251.683594 368.941406 L 267.449219 368.941406 C 270.074219 368.941406 272.464844 367.863281 274.195312 366.128906 L 274.21875 366.109375 C 275.953125 364.371094 277.027344 361.980469 277.027344 359.355469 L 277.027344 336.75 C 277.027344 334.109375 275.953125 331.707031 274.21875 329.972656 C 272.484375 328.238281 270.089844 327.160156 267.449219 327.160156 L 251.683594 327.160156 L 251.683594 296.953125 L 267.449219 296.953125 C 270.074219 296.953125 272.460938 295.875 274.195312 294.140625 L 274.21875 294.117188 C 275.953125 292.382812 277.027344 289.992188 277.027344 287.363281 L 277.027344 264.761719 C 277.027344 262.117188 275.953125 259.71875 274.21875 257.984375 C 272.484375 256.25 270.089844 255.171875 267.445312 255.171875 L 251.683594 255.171875 L 251.683594 214.46875 C 251.683594 210.222656 253.421875 206.359375 256.222656 203.558594 C 259.023438 200.753906 262.882812 199.011719 267.121094 199.011719 L 299.414062 199.011719 L 299.414062 569.074219 Z M 311.347656 199.015625 L 311.347656 569.078125 L 526.03125 569.078125 C 530.273438 569.078125 534.132812 567.335938 536.933594 564.535156 C 539.734375 561.730469 541.472656 557.867188 541.472656 553.625 L 541.472656 214.46875 C 541.472656 210.226562 539.734375 206.363281 536.933594 203.558594 C 534.132812 200.757812 530.273438 199.015625 526.03125 199.015625 Z M 481.746094 291.230469 L 359.902344 291.230469 L 359.902344 350.683594 L 481.746094 350.683594 Z M 353.9375 279.292969 C 350.644531 279.292969 347.972656 281.964844 347.972656 285.261719 L 347.972656 356.652344 C 347.972656 359.945312 350.644531 362.621094 353.9375 362.621094 L 487.707031 362.621094 C 491 362.621094 493.671875 359.949219 493.671875 356.652344 L 493.671875 285.261719 C 493.671875 281.964844 491.003906 279.292969 487.707031 279.292969 Z M 353.9375 446.050781 L 487.707031 446.050781 C 491 446.050781 493.671875 443.375 493.671875 440.078125 C 493.671875 436.78125 491.003906 434.109375 487.707031 434.109375 L 353.9375 434.109375 C 350.644531 434.109375 347.972656 436.78125 347.972656 440.078125 C 347.972656 443.375 350.644531 446.050781 353.9375 446.050781 Z M 353.9375 492.5625 L 487.707031 492.5625 C 491 492.5625 493.671875 489.890625 493.671875 486.59375 C 493.671875 483.296875 491.003906 480.625 487.707031 480.625 L 353.9375 480.625 C 350.644531 480.625 347.972656 483.296875 347.972656 486.59375 C 347.972656 489.890625 350.644531 492.5625 353.9375 492.5625 Z M 353.9375 492.5625 " fill-opacity="1" fill-rule="evenodd"/></g><path fill="#00bf63" d="M 422.734375 474.8125 L 447.226562 488.863281 C 448.917969 489.835938 451.078125 489.25 452.050781 487.554688 L 466.859375 461.746094 L 466.84375 461.699219 L 478.082031 479.859375 L 473.816406 482.484375 C 473.082031 482.9375 473.265625 484.050781 474.105469 484.242188 L 503.4375 490.972656 C 504.902344 491.308594 506.363281 490.40625 506.722656 488.945312 L 513.914062 459.726562 C 514.117188 458.890625 513.207031 458.226562 512.472656 458.675781 L 508.144531 461.34375 L 491.769531 434.886719 C 489.007812 430.429688 484.140625 427.710938 478.898438 427.695312 L 454.722656 427.730469 C 454.722656 427.730469 452.710938 427.574219 450.3125 428.007812 C 449.796875 428.101562 449.261719 428.226562 448.726562 428.382812 C 446.867188 428.925781 444.988281 429.894531 443.773438 431.597656 C 442.828125 432.667969 442.058594 433.800781 441.492188 435.015625 L 421.425781 469.988281 C 420.457031 471.679688 421.042969 473.839844 422.734375 474.8125 Z M 422.734375 474.8125 " fill-opacity="1" fill-rule="nonzero"/><path fill="#00bf63" d="M 399.207031 566.605469 C 399.207031 566.605469 400.078125 568.425781 401.65625 570.277344 C 401.996094 570.679688 402.371094 571.082031 402.777344 571.464844 C 404.179688 572.800781 405.957031 573.9375 408.042969 574.136719 C 409.441406 574.417969 410.8125 574.515625 412.140625 574.394531 L 452.460938 574.207031 C 454.414062 574.195312 455.988281 572.605469 455.980469 570.652344 L 455.847656 542.417969 C 455.839844 540.464844 454.25 538.890625 452.296875 538.898438 L 422.539062 539.039062 L 422.507812 539.078125 L 432.578125 520.246094 L 436.988281 522.617188 C 437.746094 523.023438 438.621094 522.308594 438.363281 521.484375 L 429.46875 492.738281 C 429.027344 491.300781 427.511719 490.488281 426.070312 490.910156 L 397.1875 499.351562 C 396.359375 499.589844 396.242188 500.714844 397 501.121094 L 401.480469 503.53125 L 386.808594 530.96875 C 384.335938 535.59375 384.425781 541.164062 387.046875 545.710938 Z M 399.207031 566.605469 " fill-opacity="1" fill-rule="nonzero"/><path fill="#00bf63" d="M 547.429688 531.183594 L 528.152344 495.769531 C 527.21875 494.054688 525.070312 493.421875 523.355469 494.355469 L 498.558594 507.855469 C 496.84375 508.789062 496.210938 510.933594 497.144531 512.648438 L 511.371094 538.785156 L 511.417969 538.792969 L 490.0625 538.855469 L 490.0625 533.847656 C 490.058594 532.984375 489.015625 532.558594 488.410156 533.171875 L 467.316406 554.628906 C 466.261719 555.703125 466.261719 557.417969 467.316406 558.488281 L 488.441406 579.921875 C 489.046875 580.535156 490.089844 580.105469 490.089844 579.246094 L 490.085938 574.160156 L 521.199219 574.070312 C 526.441406 574.058594 531.308594 571.335938 534.066406 566.878906 L 546.703125 546.265625 C 546.703125 546.265625 547.890625 544.632812 548.777344 542.367188 C 548.964844 541.875 549.144531 541.355469 549.289062 540.816406 C 549.800781 538.949219 549.960938 536.84375 549.144531 534.914062 C 548.726562 533.546875 548.164062 532.296875 547.429688 531.183594 Z M 547.429688 531.183594 " fill-opacity="1" fill-rule="nonzero"/><g clip-path="url(#c2fe9707df)"><path fill="#000000" d="M 495.921875 509.683594 C 495.578125 510.839844 495.710938 512.058594 496.285156 513.117188 L 509.734375 537.820312 L 491.039062 537.875 L 491.039062 533.847656 C 491.039062 533.054688 490.5625 532.351562 489.832031 532.050781 C 489.101562 531.753906 488.269531 531.921875 487.714844 532.488281 L 466.617188 553.945312 C 465.929688 554.648438 465.546875 555.578125 465.550781 556.5625 C 465.550781 557.546875 465.929688 558.472656 466.621094 559.175781 L 487.746094 580.609375 C 488.117188 580.984375 488.613281 581.1875 489.125 581.1875 C 489.371094 581.1875 489.621094 581.140625 489.863281 581.039062 C 490.59375 580.742188 491.066406 580.035156 491.066406 579.246094 L 491.0625 575.136719 L 521.203125 575.050781 C 523.941406 575.042969 526.652344 574.332031 529.042969 572.996094 C 531.433594 571.65625 533.457031 569.71875 534.902344 567.386719 L 547.515625 546.804688 C 547.703125 546.542969 548.828125 544.925781 549.6875 542.71875 C 549.902344 542.167969 550.085938 541.613281 550.234375 541.074219 C 550.898438 538.636719 550.839844 536.453125 550.066406 534.582031 C 549.617188 533.128906 549.015625 531.820312 548.269531 530.683594 L 529.011719 495.300781 C 527.820312 493.117188 525.074219 492.304688 522.890625 493.496094 L 498.089844 506.996094 C 497.03125 507.574219 496.261719 508.527344 495.921875 509.683594 Z M 527.292969 496.234375 L 546.511719 531.535156 C 546.511719 531.550781 546.515625 531.5625 546.519531 531.578125 C 546.527344 531.613281 546.535156 531.644531 546.542969 531.679688 C 546.550781 531.710938 546.558594 531.746094 546.566406 531.777344 C 546.574219 531.8125 546.578125 531.84375 546.585938 531.875 C 546.59375 531.910156 546.601562 531.945312 546.605469 531.976562 C 546.613281 532.007812 546.621094 532.042969 546.625 532.074219 C 546.632812 532.105469 546.636719 532.140625 546.644531 532.171875 C 546.648438 532.203125 546.65625 532.234375 546.660156 532.265625 C 546.664062 532.296875 546.671875 532.332031 546.675781 532.363281 C 546.683594 532.394531 546.6875 532.425781 546.691406 532.457031 C 546.695312 532.488281 546.699219 532.519531 546.707031 532.550781 C 546.710938 532.582031 546.714844 532.613281 546.71875 532.640625 C 546.722656 532.671875 546.726562 532.703125 546.730469 532.734375 C 546.734375 532.765625 546.738281 532.796875 546.742188 532.824219 C 546.746094 532.855469 546.746094 532.886719 546.75 532.917969 C 546.753906 532.945312 546.757812 532.976562 546.757812 533.003906 C 546.761719 533.035156 546.765625 533.066406 546.765625 533.09375 C 546.769531 533.125 546.773438 533.152344 546.773438 533.179688 C 546.777344 533.210938 546.777344 533.242188 546.78125 533.269531 C 546.78125 533.300781 546.78125 533.328125 546.785156 533.355469 C 546.785156 533.382812 546.785156 533.414062 546.789062 533.441406 C 546.789062 533.46875 546.789062 533.496094 546.789062 533.523438 C 546.792969 533.554688 546.792969 533.582031 546.792969 533.609375 C 546.792969 533.636719 546.792969 533.664062 546.792969 533.691406 C 546.792969 533.71875 546.792969 533.746094 546.792969 533.777344 C 546.792969 533.800781 546.792969 533.828125 546.792969 533.855469 C 546.789062 533.882812 546.789062 533.910156 546.789062 533.9375 C 546.789062 533.964844 546.785156 533.988281 546.785156 534.015625 C 546.785156 534.042969 546.78125 534.070312 546.78125 534.097656 C 546.777344 534.121094 546.777344 534.148438 546.777344 534.171875 C 546.773438 534.199219 546.769531 534.226562 546.769531 534.25 C 546.765625 534.277344 546.765625 534.300781 546.761719 534.324219 C 546.757812 534.351562 546.753906 534.378906 546.753906 534.402344 C 546.75 534.425781 546.746094 534.453125 546.742188 534.476562 C 546.738281 534.5 546.734375 534.527344 546.730469 534.550781 C 546.730469 534.574219 546.726562 534.597656 546.722656 534.625 C 546.71875 534.648438 546.710938 534.671875 546.707031 534.695312 C 546.703125 534.71875 546.699219 534.742188 546.695312 534.765625 C 546.691406 534.789062 546.683594 534.816406 546.679688 534.839844 C 546.675781 534.863281 546.667969 534.882812 546.664062 534.90625 C 546.660156 534.929688 546.652344 534.953125 546.648438 534.976562 C 546.640625 535 546.636719 535.023438 546.628906 535.042969 C 546.625 535.066406 546.617188 535.089844 546.609375 535.113281 C 546.605469 535.132812 546.597656 535.15625 546.589844 535.175781 C 546.585938 535.199219 546.578125 535.222656 546.570312 535.246094 C 546.5625 535.265625 546.554688 535.285156 546.550781 535.308594 C 546.542969 535.328125 546.53125 535.351562 546.523438 535.371094 C 546.519531 535.394531 546.511719 535.414062 546.503906 535.433594 C 546.492188 535.457031 546.484375 535.476562 546.476562 535.5 C 546.46875 535.519531 546.460938 535.539062 546.453125 535.554688 C 546.441406 535.578125 546.433594 535.597656 546.421875 535.621094 C 546.414062 535.640625 546.40625 535.65625 546.398438 535.675781 C 546.386719 535.699219 546.375 535.71875 546.367188 535.738281 C 546.355469 535.757812 546.347656 535.773438 546.339844 535.792969 C 546.328125 535.8125 546.316406 535.835938 546.304688 535.855469 C 546.292969 535.871094 546.285156 535.890625 546.273438 535.90625 C 546.261719 535.925781 546.25 535.945312 546.238281 535.96875 C 546.226562 535.984375 546.21875 536 546.207031 536.015625 C 546.195312 536.035156 546.179688 536.058594 546.167969 536.078125 C 546.15625 536.09375 546.148438 536.105469 546.136719 536.121094 C 546.121094 536.144531 546.105469 536.167969 546.089844 536.1875 C 546.078125 536.199219 546.070312 536.210938 546.0625 536.222656 C 546.035156 536.257812 546.011719 536.289062 545.984375 536.324219 C 545.863281 536.46875 545.730469 536.597656 545.59375 536.714844 C 544.25 537.84375 542.195312 537.734375 542.175781 537.730469 C 542.152344 537.730469 542.128906 537.730469 542.105469 537.730469 L 511.957031 537.816406 L 498 512.183594 C 497.675781 511.582031 497.601562 510.890625 497.792969 510.234375 C 497.988281 509.578125 498.425781 509.039062 499.027344 508.710938 L 523.824219 495.210938 C 524.210938 495 524.628906 494.902344 525.042969 494.902344 C 525.949219 494.902344 526.832031 495.382812 527.292969 496.234375 Z M 548.4375 535.824219 C 548.867188 537.183594 548.835938 538.773438 548.347656 540.558594 C 548.21875 541.03125 548.054688 541.519531 547.863281 542.011719 C 547.042969 544.125 545.925781 545.671875 545.914062 545.6875 C 545.898438 545.710938 545.882812 545.730469 545.871094 545.753906 L 533.238281 566.363281 C 531.96875 568.410156 530.191406 570.113281 528.089844 571.289062 C 525.988281 572.464844 523.605469 573.089844 521.195312 573.09375 L 490.082031 573.183594 C 489.542969 573.183594 489.109375 573.621094 489.109375 574.160156 L 489.113281 579.210938 L 468.015625 557.804688 C 467.335938 557.117188 467.335938 556 468.011719 555.316406 L 489.082031 533.882812 L 489.085938 538.855469 C 489.085938 539.113281 489.191406 539.363281 489.375 539.546875 C 489.558594 539.730469 489.804688 539.832031 490.0625 539.832031 C 490.066406 539.832031 490.066406 539.832031 490.066406 539.832031 L 542.082031 539.683594 C 542.492188 539.703125 545.628906 539.78125 547.472656 537.585938 C 547.90625 537.074219 548.226562 536.484375 548.4375 535.824219 Z M 548.4375 535.824219 " fill-opacity="1" fill-rule="nonzero"/></g><g clip-path="url(#e29b9ab318)"><path fill="#000000" d="M 422.25 475.660156 L 446.738281 489.710938 C 447.433594 490.109375 448.199219 490.3125 448.976562 490.3125 C 449.375 490.3125 449.773438 490.257812 450.164062 490.152344 C 451.328125 489.835938 452.300781 489.089844 452.898438 488.042969 L 466.898438 463.644531 L 476.734375 479.539062 L 473.304688 481.652344 C 472.632812 482.066406 472.277344 482.839844 472.40625 483.621094 C 472.535156 484.398438 473.117188 485.019531 473.886719 485.195312 L 503.21875 491.921875 C 503.496094 491.988281 503.777344 492.019531 504.058594 492.019531 C 504.738281 492.019531 505.410156 491.832031 506.007812 491.464844 C 506.84375 490.949219 507.4375 490.136719 507.671875 489.179688 L 514.863281 459.960938 C 515.050781 459.191406 514.757812 458.394531 514.121094 457.929688 C 513.480469 457.464844 512.632812 457.429688 511.960938 457.84375 L 508.460938 460 L 492.597656 434.375 C 491.15625 432.046875 489.132812 430.109375 486.742188 428.773438 C 484.351562 427.4375 481.640625 426.726562 478.894531 426.71875 L 454.753906 426.753906 C 454.433594 426.734375 452.46875 426.625 450.140625 427.046875 C 449.554688 427.152344 448.984375 427.289062 448.449219 427.445312 C 446.027344 428.152344 444.195312 429.347656 443.007812 430.988281 C 442.003906 432.128906 441.207031 433.332031 440.628906 434.558594 L 420.578125 469.5 C 419.980469 470.546875 419.824219 471.761719 420.136719 472.925781 C 420.453125 474.089844 421.203125 475.058594 422.25 475.660156 Z M 444.917969 431.722656 C 445.851562 430.648438 447.222656 429.839844 449 429.320312 C 449.46875 429.183594 449.972656 429.0625 450.488281 428.96875 C 452.71875 428.566406 454.625 428.703125 454.644531 428.707031 C 454.671875 428.707031 454.695312 428.710938 454.722656 428.710938 L 478.894531 428.671875 C 481.304688 428.679688 483.6875 429.304688 485.789062 430.476562 C 487.890625 431.652344 489.671875 433.355469 490.9375 435.402344 L 507.3125 461.859375 C 507.597656 462.316406 508.195312 462.457031 508.65625 462.175781 L 512.957031 459.527344 L 505.773438 488.714844 C 505.542969 489.648438 504.59375 490.234375 503.65625 490.019531 L 474.359375 483.296875 L 478.59375 480.691406 C 478.816406 480.554688 478.972656 480.335938 479.03125 480.082031 C 479.09375 479.832031 479.046875 479.566406 478.914062 479.34375 L 451.535156 435.113281 C 451.402344 434.871094 450.648438 433.570312 449.304688 432.613281 C 449.242188 432.566406 449.179688 432.523438 449.117188 432.480469 C 448.5 432.074219 447.769531 431.746094 446.925781 431.621094 C 446.261719 431.523438 445.589844 431.558594 444.917969 431.722656 Z M 422.273438 470.472656 L 442.273438 435.613281 C 442.285156 435.601562 442.296875 435.589844 442.308594 435.582031 C 442.332031 435.558594 442.355469 435.535156 442.378906 435.511719 C 442.40625 435.484375 442.429688 435.460938 442.453125 435.4375 C 442.480469 435.414062 442.503906 435.390625 442.527344 435.367188 C 442.550781 435.34375 442.578125 435.320312 442.601562 435.296875 C 442.625 435.277344 442.648438 435.253906 442.671875 435.234375 C 442.699219 435.210938 442.722656 435.1875 442.746094 435.164062 C 442.773438 435.144531 442.796875 435.121094 442.820312 435.101562 C 442.84375 435.078125 442.867188 435.058594 442.894531 435.035156 C 442.917969 435.015625 442.941406 434.996094 442.964844 434.976562 C 442.988281 434.957031 443.015625 434.933594 443.039062 434.914062 C 443.0625 434.894531 443.085938 434.875 443.109375 434.855469 C 443.132812 434.835938 443.160156 434.816406 443.183594 434.796875 C 443.207031 434.777344 443.230469 434.757812 443.253906 434.742188 C 443.277344 434.722656 443.300781 434.703125 443.328125 434.683594 C 443.351562 434.664062 443.375 434.648438 443.398438 434.628906 C 443.421875 434.613281 443.445312 434.59375 443.46875 434.574219 C 443.492188 434.558594 443.515625 434.542969 443.539062 434.527344 C 443.5625 434.507812 443.589844 434.492188 443.613281 434.472656 C 443.636719 434.457031 443.660156 434.441406 443.679688 434.425781 C 443.707031 434.410156 443.730469 434.390625 443.753906 434.375 C 443.777344 434.359375 443.800781 434.347656 443.824219 434.332031 C 443.847656 434.316406 443.871094 434.300781 443.898438 434.285156 C 443.917969 434.269531 443.941406 434.253906 443.964844 434.242188 C 443.988281 434.226562 444.011719 434.210938 444.039062 434.199219 C 444.058594 434.183594 444.082031 434.171875 444.105469 434.15625 C 444.128906 434.144531 444.152344 434.128906 444.175781 434.117188 C 444.199219 434.101562 444.222656 434.089844 444.242188 434.078125 C 444.269531 434.066406 444.292969 434.050781 444.316406 434.039062 C 444.339844 434.027344 444.359375 434.015625 444.382812 434.003906 C 444.40625 433.992188 444.429688 433.980469 444.457031 433.96875 C 444.476562 433.957031 444.5 433.945312 444.519531 433.9375 C 444.542969 433.925781 444.570312 433.914062 444.59375 433.902344 C 444.613281 433.894531 444.636719 433.882812 444.65625 433.875 C 444.683594 433.863281 444.707031 433.851562 444.730469 433.84375 C 444.753906 433.832031 444.773438 433.824219 444.792969 433.816406 C 444.820312 433.804688 444.84375 433.796875 444.867188 433.785156 C 444.886719 433.777344 444.910156 433.769531 444.929688 433.761719 C 444.953125 433.753906 444.980469 433.746094 445.003906 433.738281 C 445.023438 433.730469 445.046875 433.722656 445.066406 433.714844 C 445.089844 433.707031 445.113281 433.699219 445.136719 433.691406 C 445.160156 433.683594 445.179688 433.679688 445.199219 433.671875 C 445.222656 433.664062 445.25 433.660156 445.273438 433.652344 C 445.292969 433.648438 445.3125 433.640625 445.335938 433.636719 C 445.359375 433.628906 445.382812 433.625 445.40625 433.617188 C 445.425781 433.613281 445.445312 433.609375 445.46875 433.605469 C 445.492188 433.597656 445.515625 433.59375 445.539062 433.589844 C 445.558594 433.585938 445.578125 433.582031 445.601562 433.578125 C 445.625 433.574219 445.648438 433.570312 445.671875 433.566406 C 445.691406 433.5625 445.710938 433.558594 445.730469 433.554688 C 445.753906 433.550781 445.777344 433.550781 445.800781 433.546875 C 445.824219 433.542969 445.84375 433.542969 445.863281 433.539062 C 445.886719 433.535156 445.910156 433.535156 445.933594 433.535156 C 445.953125 433.53125 445.972656 433.53125 445.992188 433.527344 C 446.015625 433.527344 446.039062 433.527344 446.066406 433.523438 C 446.082031 433.523438 446.101562 433.523438 446.121094 433.523438 C 446.144531 433.523438 446.171875 433.523438 446.195312 433.523438 C 446.214844 433.523438 446.230469 433.523438 446.25 433.523438 C 446.277344 433.523438 446.300781 433.523438 446.328125 433.527344 C 446.34375 433.527344 446.359375 433.527344 446.378906 433.527344 C 446.40625 433.53125 446.433594 433.53125 446.464844 433.535156 C 446.476562 433.535156 446.492188 433.535156 446.503906 433.539062 C 446.546875 433.542969 446.589844 433.546875 446.628906 433.554688 C 446.691406 433.5625 446.753906 433.574219 446.8125 433.585938 C 446.875 433.597656 446.933594 433.613281 446.992188 433.628906 C 447.050781 433.644531 447.109375 433.660156 447.164062 433.679688 C 447.164062 433.679688 447.167969 433.679688 447.167969 433.679688 C 447.222656 433.699219 447.277344 433.71875 447.335938 433.742188 C 447.390625 433.765625 447.445312 433.785156 447.5 433.8125 C 447.554688 433.835938 447.605469 433.859375 447.65625 433.886719 C 447.660156 433.886719 447.660156 433.886719 447.660156 433.886719 C 447.710938 433.914062 447.761719 433.941406 447.8125 433.972656 C 447.863281 434 447.914062 434.03125 447.960938 434.0625 C 447.960938 434.0625 447.960938 434.0625 447.964844 434.0625 C 448.011719 434.09375 448.058594 434.125 448.105469 434.15625 C 449.191406 434.898438 449.8125 436.035156 449.828125 436.0625 C 449.835938 436.082031 449.847656 436.101562 449.859375 436.121094 L 465.726562 461.757812 L 451.203125 487.070312 C 450.863281 487.664062 450.3125 488.085938 449.652344 488.265625 C 448.992188 488.445312 448.304688 488.355469 447.710938 488.015625 L 423.222656 473.964844 C 422.628906 473.625 422.203125 473.074219 422.023438 472.414062 C 421.847656 471.753906 421.933594 471.066406 422.273438 470.472656 Z M 422.273438 470.472656 " fill-opacity="1" fill-rule="nonzero"/></g><path fill="#000000" d="M 398.34375 567.066406 C 398.484375 567.351562 399.378906 569.109375 400.914062 570.910156 C 401.296875 571.363281 401.699219 571.789062 402.105469 572.171875 C 403.933594 573.914062 405.882812 574.898438 407.902344 575.105469 C 408.972656 575.316406 410.015625 575.421875 411.019531 575.421875 C 411.414062 575.421875 411.800781 575.402344 412.179688 575.371094 L 452.464844 575.183594 C 453.671875 575.175781 454.800781 574.703125 455.652344 573.847656 C 456.5 572.992188 456.964844 571.855469 456.957031 570.648438 L 456.824219 542.414062 C 456.8125 539.933594 454.792969 537.921875 452.3125 537.921875 C 452.304688 537.921875 452.296875 537.921875 452.292969 537.921875 L 424.164062 538.054688 L 432.976562 521.570312 L 436.527344 523.476562 C 437.222656 523.851562 438.066406 523.769531 438.679688 523.265625 C 439.289062 522.761719 439.53125 521.949219 439.296875 521.195312 L 430.402344 492.449219 C 430.113281 491.507812 429.472656 490.734375 428.605469 490.265625 C 427.738281 489.800781 426.742188 489.695312 425.796875 489.972656 L 396.914062 498.410156 C 396.152344 498.632812 395.609375 499.285156 395.527344 500.070312 C 395.445312 500.859375 395.839844 501.609375 396.539062 501.984375 L 400.15625 503.929688 L 385.949219 530.507812 C 384.65625 532.921875 383.996094 535.644531 384.042969 538.382812 C 384.085938 541.121094 384.832031 543.824219 386.199219 546.199219 Z M 402.339844 503.988281 C 402.59375 503.515625 402.417969 502.925781 401.941406 502.667969 L 397.492188 500.277344 L 426.34375 491.847656 C 427.269531 491.578125 428.25 492.105469 428.535156 493.027344 L 437.421875 521.738281 L 433.039062 519.386719 C 432.8125 519.261719 432.542969 519.234375 432.296875 519.308594 C 432.046875 519.386719 431.839844 519.554688 431.714844 519.785156 L 407.191406 565.65625 C 406.976562 566.007812 405.421875 568.734375 406.480469 571.394531 C 406.730469 572.019531 407.09375 572.582031 407.578125 573.082031 C 406.179688 572.816406 404.792969 572.035156 403.449219 570.757812 C 403.09375 570.421875 402.742188 570.046875 402.402344 569.644531 C 400.929688 567.917969 400.09375 566.199219 400.085938 566.183594 C 400.078125 566.160156 400.0625 566.136719 400.050781 566.113281 L 387.890625 545.222656 C 386.6875 543.136719 386.035156 540.761719 385.996094 538.351562 C 385.957031 535.945312 386.535156 533.550781 387.671875 531.429688 Z M 423.117188 540.015625 L 452.300781 539.878906 C 452.304688 539.878906 452.308594 539.878906 452.3125 539.878906 C 453.71875 539.878906 454.863281 541.015625 454.871094 542.421875 L 455.003906 570.660156 C 455.007812 571.34375 454.742188 571.984375 454.261719 572.472656 C 453.78125 572.957031 453.140625 573.226562 452.457031 573.230469 L 412.265625 573.417969 C 412.253906 573.414062 412.238281 573.410156 412.222656 573.40625 C 412.191406 573.398438 412.160156 573.386719 412.125 573.378906 C 412.09375 573.371094 412.058594 573.359375 412.027344 573.351562 C 411.992188 573.339844 411.960938 573.332031 411.929688 573.324219 C 411.898438 573.3125 411.863281 573.300781 411.832031 573.292969 C 411.800781 573.28125 411.769531 573.273438 411.738281 573.265625 C 411.707031 573.253906 411.675781 573.242188 411.644531 573.234375 C 411.613281 573.222656 411.582031 573.214844 411.550781 573.203125 C 411.519531 573.191406 411.488281 573.183594 411.460938 573.171875 C 411.429688 573.160156 411.398438 573.152344 411.371094 573.140625 C 411.339844 573.128906 411.308594 573.117188 411.28125 573.109375 C 411.25 573.097656 411.222656 573.085938 411.195312 573.074219 C 411.164062 573.0625 411.136719 573.054688 411.105469 573.042969 C 411.078125 573.03125 411.050781 573.019531 411.023438 573.007812 C 410.992188 572.996094 410.964844 572.984375 410.9375 572.972656 C 410.910156 572.960938 410.882812 572.953125 410.855469 572.941406 C 410.828125 572.929688 410.800781 572.914062 410.769531 572.902344 C 410.746094 572.890625 410.71875 572.878906 410.691406 572.867188 C 410.664062 572.855469 410.636719 572.84375 410.613281 572.832031 C 410.585938 572.820312 410.558594 572.808594 410.535156 572.796875 C 410.507812 572.785156 410.480469 572.769531 410.457031 572.757812 C 410.429688 572.746094 410.40625 572.734375 410.382812 572.722656 C 410.355469 572.707031 410.332031 572.695312 410.304688 572.683594 C 410.28125 572.667969 410.257812 572.65625 410.234375 572.644531 C 410.210938 572.628906 410.183594 572.617188 410.160156 572.605469 C 410.136719 572.589844 410.113281 572.578125 410.089844 572.566406 C 410.066406 572.550781 410.042969 572.539062 410.019531 572.523438 C 409.996094 572.511719 409.972656 572.496094 409.953125 572.484375 C 409.929688 572.46875 409.90625 572.457031 409.882812 572.441406 C 409.863281 572.429688 409.839844 572.414062 409.820312 572.402344 C 409.796875 572.386719 409.773438 572.371094 409.753906 572.355469 C 409.730469 572.34375 409.710938 572.328125 409.691406 572.316406 C 409.667969 572.300781 409.648438 572.285156 409.625 572.269531 C 409.605469 572.257812 409.585938 572.242188 409.566406 572.226562 C 409.546875 572.214844 409.527344 572.199219 409.503906 572.183594 C 409.484375 572.167969 409.46875 572.152344 409.449219 572.140625 C 409.429688 572.125 409.410156 572.109375 409.390625 572.09375 C 409.371094 572.078125 409.351562 572.0625 409.335938 572.046875 C 409.316406 572.03125 409.296875 572.015625 409.277344 572 C 409.261719 571.984375 409.242188 571.96875 409.226562 571.953125 C 409.207031 571.9375 409.1875 571.921875 409.171875 571.90625 C 409.15625 571.890625 409.136719 571.875 409.121094 571.859375 C 409.101562 571.84375 409.085938 571.828125 409.070312 571.808594 C 409.054688 571.792969 409.039062 571.777344 409.023438 571.761719 C 409.003906 571.746094 408.988281 571.726562 408.972656 571.710938 C 408.957031 571.695312 408.941406 571.679688 408.925781 571.664062 C 408.910156 571.644531 408.894531 571.628906 408.882812 571.609375 C 408.867188 571.59375 408.851562 571.578125 408.839844 571.5625 C 408.824219 571.542969 408.808594 571.527344 408.792969 571.507812 C 408.78125 571.492188 408.765625 571.476562 408.753906 571.460938 C 408.738281 571.441406 408.726562 571.421875 408.710938 571.402344 C 408.699219 571.386719 408.6875 571.371094 408.675781 571.355469 C 408.660156 571.335938 408.648438 571.316406 408.632812 571.296875 C 408.621094 571.28125 408.609375 571.265625 408.601562 571.246094 C 408.585938 571.226562 408.574219 571.207031 408.5625 571.1875 C 408.550781 571.171875 408.539062 571.15625 408.53125 571.136719 C 408.515625 571.117188 408.507812 571.097656 408.492188 571.078125 C 408.484375 571.058594 408.472656 571.042969 408.464844 571.027344 C 408.453125 571.003906 408.441406 570.984375 408.429688 570.960938 C 408.421875 570.945312 408.414062 570.929688 408.40625 570.914062 C 408.394531 570.890625 408.382812 570.867188 408.371094 570.84375 C 408.363281 570.828125 408.355469 570.8125 408.351562 570.800781 C 408.335938 570.765625 408.320312 570.730469 408.304688 570.695312 C 408.304688 570.691406 408.304688 570.6875 408.300781 570.683594 C 408.238281 570.523438 408.1875 570.359375 408.152344 570.195312 C 407.769531 568.464844 408.855469 566.679688 408.867188 566.660156 C 408.878906 566.640625 408.890625 566.621094 408.902344 566.601562 Z M 423.117188 540.015625 " fill-opacity="1" fill-rule="nonzero"/></svg>