<svg xmlns="http://www.w3.org/2000/svg" xmlns:xlink="http://www.w3.org/1999/xlink" width="1024" zoomAndPan="magnify" viewBox="0 0 768 767.999994" height="1024" preserveAspectRatio="xMidYMid meet" version="1.0"><defs><clipPath id="6d8a290f65"><path d="M 256.460938 468.214844 L 530.371094 468.214844 L 530.371094 747.300781 L 256.460938 747.300781 Z M 256.460938 468.214844 " clip-rule="nonzero"/></clipPath><clipPath id="26316a013b"><path d="M 237.886719 484 L 350 484 L 350 699 L 237.886719 699 Z M 237.886719 484 " clip-rule="nonzero"/></clipPath><clipPath id="67a6403fff"><path d="M 84.289062 135.449219 L 391.789062 135.449219 L 391.789062 439.949219 L 84.289062 439.949219 Z M 84.289062 135.449219 " clip-rule="nonzero"/></clipPath></defs><rect x="-76.8" width="921.6" fill="#ffffff" y="-76.799999" height="921.599993" fill-opacity="1"/><rect x="-76.8" width="921.6" fill="#ffffff" y="-76.799999" height="921.599993" fill-opacity="1"/><path fill="#000000" d="M 567.410156 439.921875 C 545.714844 439.921875 523.886719 439.128906 502.253906 436.6875 C 493.085938 435.632812 482.46875 434.179688 472.578125 429.953125 C 461.761719 425.332031 453.519531 417.871094 449.429688 408.890625 C 443.5625 396.148438 446.132812 381.625 448.242188 370.003906 L 466.578125 266.875 C 466.839844 265.421875 468.09375 264.300781 469.542969 264.167969 C 475.808594 263.707031 482.207031 263.242188 488.601562 262.78125 C 490.382812 262.648438 491.964844 264.035156 492.097656 265.882812 C 492.230469 267.734375 490.84375 269.25 489 269.382812 C 483.527344 269.78125 477.984375 270.175781 472.578125 270.570312 L 454.773438 371.191406 C 452.398438 384.398438 450.882812 396.148438 455.496094 406.183594 C 458.925781 413.644531 465.917969 419.917969 475.214844 423.878906 C 484.25 427.707031 494.273438 429.09375 503.046875 430.085938 C 544.660156 434.773438 587.261719 433.320312 628.476562 431.867188 C 637.378906 431.539062 646.613281 431.207031 655.253906 429.027344 C 661.78125 427.378906 670.816406 423.746094 676.816406 416.15625 C 682.816406 408.628906 684.203125 398.988281 684.335938 392.253906 C 684.53125 383.339844 682.753906 374.363281 681.039062 365.582031 C 678.796875 354.222656 676.355469 343.265625 673.980469 332.699219 C 669.429688 312.167969 664.683594 290.972656 661.1875 265.6875 C 645.886719 265.355469 630.585938 265.222656 615.75 265.222656 C 615.484375 265.222656 615.289062 265.222656 615.023438 265.222656 C 613.175781 265.222656 611.726562 263.769531 611.726562 261.921875 C 611.726562 260.074219 613.175781 258.621094 615.023438 258.621094 C 631.117188 258.621094 647.667969 258.820312 664.15625 259.148438 C 665.804688 259.214844 667.121094 260.402344 667.320312 261.988281 C 670.816406 288.199219 675.695312 310.121094 680.378906 331.246094 C 682.753906 341.878906 685.191406 352.902344 687.433594 364.324219 C 689.214844 373.4375 691.0625 382.8125 690.863281 392.386719 C 690.664062 400.109375 689.015625 411.203125 681.894531 420.246094 C 674.773438 429.292969 664.285156 433.453125 656.835938 435.367188 C 647.535156 437.746094 637.90625 438.074219 628.675781 438.40625 C 608.496094 439.195312 587.984375 439.921875 567.410156 439.921875 Z M 567.410156 439.921875 " fill-opacity="1" fill-rule="nonzero"/><path fill="#000000" d="M 511.949219 267.996094 C 510.234375 267.996094 508.785156 266.609375 508.652344 264.894531 C 508.585938 263.046875 509.96875 261.527344 511.75 261.394531 C 537.601562 260.007812 564.179688 259.148438 590.820312 258.820312 C 590.820312 258.820312 590.820312 258.820312 590.886719 258.820312 C 592.667969 258.820312 594.183594 260.273438 594.183594 262.054688 C 594.183594 263.902344 592.734375 265.355469 590.953125 265.421875 C 564.441406 265.753906 537.933594 266.609375 512.148438 267.996094 C 512.082031 267.996094 512.015625 267.996094 511.949219 267.996094 Z M 511.949219 267.996094 " fill-opacity="1" fill-rule="nonzero"/><path fill="#000000" d="M 537.667969 285.957031 C 534.832031 285.957031 532.0625 285.957031 529.292969 285.890625 C 528.371094 285.890625 527.511719 285.425781 526.851562 284.765625 C 526.257812 284.039062 525.929688 283.117188 526.0625 282.191406 L 528.238281 263.96875 C 528.433594 262.1875 530.085938 260.867188 531.929688 261.066406 C 533.710938 261.261719 535.03125 262.914062 534.832031 264.761719 L 533.050781 279.351562 C 543.601562 279.484375 554.222656 279.15625 564.773438 278.496094 L 567.148438 262.714844 C 567.410156 260.933594 569.125 259.679688 570.90625 259.941406 C 572.6875 260.207031 573.9375 261.921875 573.675781 263.707031 L 570.90625 282.125 C 570.707031 283.644531 569.390625 284.832031 567.871094 284.898438 C 557.847656 285.558594 547.757812 285.957031 537.667969 285.957031 Z M 537.667969 285.957031 " fill-opacity="1" fill-rule="nonzero"/><path fill="#000000" d="M 671.011719 385.386719 C 669.890625 385.386719 668.769531 384.792969 668.113281 383.738281 C 647.867188 347.6875 637.378906 303.320312 639.425781 261.988281 C 639.492188 260.140625 641.074219 258.753906 642.855469 258.820312 C 644.699219 258.886719 646.085938 260.46875 646.019531 262.253906 C 644.042969 302.328125 654.195312 345.441406 673.847656 380.433594 C 674.773438 382.019531 674.179688 384.066406 672.597656 384.925781 C 672.132812 385.253906 671.542969 385.386719 671.011719 385.386719 Z M 671.011719 385.386719 " fill-opacity="1" fill-rule="nonzero"/><path fill="#000000" d="M 599.988281 287.277344 C 599.195312 287.277344 598.40625 287.210938 597.679688 287.078125 C 590.625 286.023438 586.007812 280.34375 585.941406 272.683594 C 585.941406 269.382812 586.667969 265.816406 587.65625 261.195312 C 590.03125 250.105469 593.65625 233.269531 588.84375 204.613281 C 586.269531 189.03125 579.347656 179.261719 569.453125 177.082031 C 557.585938 174.507812 542.679688 183.089844 532.328125 198.472656 C 514.785156 224.554688 515.046875 248.257812 515.246094 262.449219 C 515.3125 267.46875 515.378906 271.496094 514.585938 274.335938 C 512.476562 282.390625 506.605469 287.34375 499.617188 286.8125 C 492.363281 286.351562 486.625 280.210938 485.636719 271.957031 C 484.710938 263.96875 492.824219 203.691406 527.050781 173.1875 C 556.398438 146.910156 582.378906 152.785156 595.636719 165.726562 C 610.210938 179.921875 615.484375 207.71875 617.332031 222.96875 C 620.101562 245.878906 618.71875 266.609375 615.949219 275.257812 C 613.308594 283.445312 606.320312 287.277344 599.988281 287.277344 Z M 565.101562 170.082031 C 567.082031 170.082031 568.992188 170.28125 570.90625 170.679688 C 578.292969 172.261719 591.21875 178.667969 595.371094 203.558594 C 600.382812 233.464844 596.558594 251.027344 594.117188 262.648438 C 593.195312 266.808594 592.535156 270.109375 592.535156 272.683594 C 592.601562 278.957031 596.824219 280.277344 598.667969 280.609375 C 602.757812 281.269531 607.835938 278.957031 609.683594 273.34375 C 614.695312 257.761719 614.101562 193.058594 591.085938 170.546875 C 579.808594 159.585938 557.453125 154.964844 531.46875 178.203125 C 514.125 193.71875 504.363281 216.960938 499.285156 233.796875 C 493.484375 252.746094 491.964844 268.789062 492.230469 271.363281 C 492.957031 277.304688 496.714844 280.144531 500.078125 280.410156 C 503.902344 280.671875 506.9375 277.835938 508.253906 272.816406 C 508.785156 270.769531 508.71875 267.007812 508.652344 262.648438 C 508.453125 247.660156 508.191406 222.636719 526.917969 194.910156 C 537.40625 179.261719 551.847656 170.082031 565.101562 170.082031 Z M 565.101562 170.082031 " fill-opacity="1" fill-rule="nonzero"/><path fill="#000000" d="M 526.324219 265.222656 C 524.742188 265.222656 523.292969 264.035156 523.09375 262.386719 C 519.335938 236.371094 522.300781 209.167969 531.007812 189.496094 C 531.734375 187.84375 533.710938 187.050781 535.359375 187.84375 C 537.007812 188.570312 537.800781 190.550781 537.007812 192.203125 C 528.765625 210.753906 526.0625 236.636719 529.621094 261.460938 C 529.886719 263.242188 528.632812 264.960938 526.851562 265.222656 C 526.65625 265.222656 526.457031 265.222656 526.324219 265.222656 Z M 526.324219 265.222656 " fill-opacity="1" fill-rule="nonzero"/><path fill="#000000" d="M 548.351562 265.222656 C 547.097656 265.222656 545.910156 264.496094 545.382812 263.308594 C 539.449219 250.699219 536.8125 234.324219 538.0625 217.226562 C 539.316406 200.191406 544.195312 184.675781 551.78125 173.582031 C 552.835938 172.0625 554.878906 171.667969 556.398438 172.726562 C 557.914062 173.78125 558.308594 175.828125 557.253906 177.347656 C 542.746094 198.539062 540.042969 236.636719 551.386719 260.601562 C 552.175781 262.253906 551.449219 264.234375 549.800781 265.027344 C 549.273438 265.15625 548.8125 265.222656 548.351562 265.222656 Z M 548.351562 265.222656 " fill-opacity="1" fill-rule="nonzero"/><path fill="#000000" d="M 634.214844 265.421875 C 632.367188 265.421875 630.917969 263.96875 630.917969 262.121094 C 630.917969 225.808594 615.421875 180.054688 586.734375 166.914062 C 585.085938 166.1875 584.359375 164.207031 585.085938 162.558594 C 585.808594 160.90625 587.789062 160.179688 589.4375 160.90625 C 604.800781 167.90625 617.53125 183.089844 626.300781 204.746094 C 633.421875 222.308594 637.511719 243.238281 637.511719 262.121094 C 637.511719 263.96875 635.996094 265.421875 634.214844 265.421875 Z M 634.214844 265.421875 " fill-opacity="1" fill-rule="nonzero"/><path fill="#000000" d="M 452.070312 398.722656 C 451.605469 398.722656 451.210938 398.527344 450.882812 398.195312 C 450.222656 397.535156 450.289062 396.480469 450.949219 395.886719 L 464.070312 383.339844 C 464.730469 382.679688 465.785156 382.746094 466.378906 383.40625 C 467.039062 384.066406 466.972656 385.125 466.3125 385.71875 L 453.191406 398.261719 C 452.859375 398.59375 452.464844 398.722656 452.070312 398.722656 Z M 452.070312 398.722656 " fill-opacity="1" fill-rule="nonzero"/><path fill="#000000" d="M 455.960938 410.410156 C 455.5625 410.410156 455.101562 410.277344 454.773438 409.949219 C 454.113281 409.289062 454.113281 408.230469 454.773438 407.636719 L 463.675781 398.65625 C 464.335938 397.996094 465.390625 397.996094 465.984375 398.65625 C 466.644531 399.316406 466.644531 400.375 465.984375 400.96875 L 457.082031 409.949219 C 456.816406 410.277344 456.421875 410.410156 455.960938 410.410156 Z M 455.960938 410.410156 " fill-opacity="1" fill-rule="nonzero"/><path fill="#000000" d="M 461.695312 418.464844 C 461.300781 418.464844 460.972656 418.332031 460.640625 418.070312 C 459.917969 417.476562 459.851562 416.417969 460.445312 415.757812 L 466.707031 408.363281 C 467.300781 407.636719 468.359375 407.570312 469.015625 408.164062 C 469.742188 408.757812 469.808594 409.816406 469.214844 410.476562 L 462.949219 417.871094 C 462.621094 418.265625 462.160156 418.464844 461.695312 418.464844 Z M 461.695312 418.464844 " fill-opacity="1" fill-rule="nonzero"/><path fill="#000000" d="M 630.785156 423.019531 C 629.796875 423.019531 628.808594 422.953125 627.816406 422.824219 C 626.894531 422.691406 626.300781 421.898438 626.433594 420.972656 C 626.566406 420.050781 627.355469 419.457031 628.28125 419.585938 C 633.886719 420.3125 639.953125 418.398438 644.042969 414.503906 C 644.699219 413.910156 645.753906 413.910156 646.347656 414.570312 C 646.941406 415.230469 646.941406 416.285156 646.285156 416.878906 C 642.128906 420.84375 636.523438 423.019531 630.785156 423.019531 Z M 630.785156 423.019531 " fill-opacity="1" fill-rule="nonzero"/><path fill="#000000" d="M 653.339844 410.34375 C 652.945312 410.34375 652.480469 410.210938 652.152344 409.882812 C 651.492188 409.222656 651.492188 408.164062 652.152344 407.570312 L 654.066406 405.65625 C 654.722656 404.996094 655.78125 404.996094 656.375 405.65625 C 656.964844 406.316406 657.03125 407.375 656.375 407.96875 L 654.460938 409.882812 C 654.195312 410.210938 653.800781 410.34375 653.339844 410.34375 Z M 653.339844 410.34375 " fill-opacity="1" fill-rule="nonzero"/><path fill="#000000" d="M 527.511719 258.160156 C 527.050781 258.160156 526.589844 257.960938 526.257812 257.632812 C 525.664062 256.972656 525.730469 255.914062 526.390625 255.320312 L 540.238281 242.972656 C 540.898438 242.378906 541.953125 242.445312 542.546875 243.105469 C 543.140625 243.765625 543.074219 244.824219 542.417969 245.417969 L 528.566406 257.761719 C 528.304688 258.027344 527.90625 258.160156 527.511719 258.160156 Z M 527.511719 258.160156 " fill-opacity="1" fill-rule="nonzero"/><path fill="#000000" d="M 526.390625 245.613281 C 525.929688 245.613281 525.535156 245.417969 525.203125 245.085938 C 524.609375 244.425781 524.609375 243.371094 525.269531 242.777344 L 537.867188 231.023438 C 538.527344 230.429688 539.582031 230.429688 540.175781 231.089844 C 540.769531 231.75 540.769531 232.804688 540.109375 233.402344 L 527.511719 245.152344 C 527.183594 245.484375 526.785156 245.613281 526.390625 245.613281 Z M 526.390625 245.613281 " fill-opacity="1" fill-rule="nonzero"/><path fill="#000000" d="M 526.65625 231.949219 C 526.191406 231.949219 525.730469 231.75 525.46875 231.417969 C 524.875 230.757812 524.875 229.703125 525.601562 229.109375 L 531.535156 223.628906 C 532.195312 223.035156 533.25 223.035156 533.84375 223.761719 C 534.4375 224.421875 534.4375 225.476562 533.710938 226.070312 L 527.777344 231.550781 C 527.445312 231.816406 527.050781 231.949219 526.65625 231.949219 Z M 526.65625 231.949219 " fill-opacity="1" fill-rule="nonzero"/><g clip-path="url(#6d8a290f65)"><path fill="#100f0d" d="M 530.371094 533.484375 L 530.339844 532.320312 C 522.8125 531.554688 515.261719 530.132812 507.800781 528.480469 C 477.878906 521.804688 448.820312 511.070312 420.886719 498.539062 C 413.246094 495.050781 403.945312 490.652344 396.519531 486.789062 C 387.375 482.222656 377.464844 476.691406 368.550781 471.746094 L 362.789062 468.304688 L 261.488281 697.136719 L 260.390625 700.015625 L 260.15625 700.621094 L 256.730469 709.589844 C 260.59375 709.738281 265.4375 710.019531 269.265625 710.316406 C 277.160156 710.933594 285.859375 711.824219 293.757812 712.773438 C 322.378906 716.230469 358.316406 723.046875 386.515625 729.175781 C 410.527344 734.289062 435.058594 740.648438 458.683594 747.300781 C 450.851562 744.636719 443.039062 741.878906 435.167969 739.28125 C 411.746094 731.578125 387.429688 724.40625 363.570312 718.289062 C 336.03125 711.425781 306.164062 703.171875 277.414062 698.582031 L 369.324219 485.554688 C 385.023438 493.15625 401.296875 500.480469 417.441406 506.734375 C 446.40625 517.90625 475.484375 529.992188 506.128906 535.125 C 512.964844 536.253906 519.789062 537.199219 526.777344 537.644531 C 526.929688 539.960938 529.929688 584.78125 529.929688 584.78125 L 530.371094 533.484375 " fill-opacity="1" fill-rule="nonzero"/></g><g clip-path="url(#26316a013b)"><path fill="#100f0d" d="M 241.613281 659.023438 L 237.886719 665.542969 L 253.871094 698.671875 L 349.722656 484.660156 L 241.613281 659.023438 " fill-opacity="1" fill-rule="nonzero"/></g><path fill="#100f0d" d="M 345.996094 480.9375 L 238.441406 612.460938 L 250.523438 630.496094 Z M 345.996094 480.9375 " fill-opacity="1" fill-rule="nonzero"/><path fill="#100f0d" d="M 443.800781 454.230469 C 446.238281 455.25 448.773438 457.582031 450.859375 462.0625 C 435.78125 469.558594 421.621094 485.167969 419.453125 487.628906 L 427.136719 491.007812 C 432.167969 485.304688 442.695312 474.328125 453.09375 468.460938 C 455.222656 476.632812 456.242188 488.945312 454.96875 507.253906 L 460.539062 507.707031 C 461.777344 489.871094 461.269531 475.882812 458.710938 465.828125 C 462.730469 464.378906 466.570312 464.023438 469.875 465.40625 C 476.433594 468.148438 483.695312 480.34375 481.042969 518.429688 L 486.617188 518.882812 C 488.992188 484.734375 484.964844 464.644531 472.386719 459.390625 C 467.5625 457.371094 462.144531 457.792969 456.664062 459.632812 C 454.253906 453.929688 450.839844 450.105469 446.308594 448.214844 C 426.464844 439.917969 396.609375 472.785156 393.375 476.453125 L 401.0625 479.832031 C 408.992188 470.839844 430.605469 448.710938 443.800781 454.230469 " fill-opacity="1" fill-rule="nonzero"/><g clip-path="url(#67a6403fff)"><path fill="#000000" d="M 391.625 434.4375 L 381.230469 277.15625 C 381.222656 274.421875 379.011719 272.210938 376.273438 272.210938 L 352.171875 272.210938 L 352.171875 266.4375 C 352.171875 258.152344 348.507812 250.648438 342.605469 245.226562 C 340.914062 243.675781 339.03125 242.300781 337.011719 241.128906 L 334.023438 195.878906 C 334.015625 193.144531 331.800781 190.933594 329.066406 190.933594 L 286.105469 190.941406 L 286.105469 179.5625 C 286.105469 167.414062 280.71875 156.390625 272.039062 148.417969 C 263.464844 140.546875 251.667969 135.664062 238.730469 135.664062 C 231.867188 135.664062 225.335938 137.046875 219.4375 139.511719 C 213.527344 137.046875 206.996094 135.664062 200.132812 135.664062 C 187.195312 135.664062 175.402344 140.546875 166.832031 148.417969 C 158.160156 156.390625 152.765625 167.414062 152.765625 179.5625 L 152.765625 190.957031 L 143.414062 190.957031 C 143.28125 190.949219 143.152344 190.933594 143.023438 190.933594 L 112.785156 190.949219 C 110.273438 190.949219 108.121094 192.855469 107.871094 195.402344 L 84.3125 434.261719 L 84.289062 434.785156 C 84.3125 437.511719 86.539062 439.699219 89.257812 439.675781 L 156.160156 438.921875 C 156.929688 439.40625 157.835938 439.699219 158.8125 439.699219 L 263.953125 439.699219 L 386.992188 439.675781 C 389.722656 439.507812 391.796875 437.15625 391.625 434.4375 Z M 342.25 266.4375 L 342.25 272.210938 L 339.054688 272.210938 L 337.894531 254.601562 C 340.628906 257.921875 342.25 262.019531 342.25 266.4375 Z M 288.058594 272.210938 L 266.296875 272.210938 L 266.296875 266.429688 C 266.296875 261.03125 268.734375 256.09375 272.652344 252.492188 C 276.679688 248.796875 282.273438 246.496094 288.441406 246.496094 C 290.871094 246.496094 293.199219 246.855469 295.382812 247.507812 C 290.808594 252.660156 288.058594 259.257812 288.058594 266.421875 Z M 297.96875 266.4375 C 297.96875 261.054688 300.382812 256.140625 304.269531 252.546875 C 308.160156 256.140625 310.570312 261.054688 310.570312 266.4375 L 310.570312 272.210938 L 297.960938 272.210938 L 297.960938 266.4375 Z M 313.167969 247.515625 C 315.351562 246.863281 317.6875 246.503906 320.113281 246.503906 C 322.710938 246.503906 325.210938 246.917969 327.523438 247.660156 L 329.144531 272.210938 L 320.492188 272.210938 L 320.492188 266.4375 C 320.492188 259.265625 317.742188 252.675781 313.167969 247.515625 Z M 238.730469 145.570312 C 249.117188 145.570312 258.53125 149.449219 265.339844 155.691406 C 272.03125 161.832031 276.1875 170.285156 276.1875 179.5625 L 276.1875 190.941406 L 247.511719 190.941406 L 247.511719 179.5625 C 247.511719 167.414062 242.125 156.390625 233.441406 148.417969 C 232.644531 147.6875 231.8125 146.992188 230.960938 146.316406 C 233.464844 145.832031 236.0625 145.570312 238.730469 145.570312 Z M 201.273438 190.949219 L 201.273438 179.5625 C 201.273438 170.292969 205.429688 161.839844 212.121094 155.691406 C 214.304688 153.6875 216.761719 151.925781 219.4375 150.460938 C 222.101562 151.925781 224.5625 153.6875 226.75 155.691406 C 233.441406 161.839844 237.601562 170.285156 237.601562 179.5625 L 237.601562 190.949219 Z M 162.675781 179.5625 C 162.675781 170.292969 166.832031 161.839844 173.527344 155.691406 C 180.324219 149.449219 189.746094 145.570312 200.132812 145.570312 C 202.800781 145.570312 205.398438 145.832031 207.902344 146.316406 C 207.050781 146.992188 206.21875 147.6875 205.421875 148.417969 C 196.746094 156.390625 191.351562 167.414062 191.351562 179.5625 L 191.351562 190.949219 L 162.675781 190.949219 Z M 191.359375 200.839844 L 191.359375 227.128906 C 191.359375 229.863281 193.582031 232.082031 196.316406 232.082031 C 199.050781 232.082031 201.273438 229.863281 201.273438 227.128906 L 201.273438 200.839844 L 276.1875 200.839844 L 276.1875 227.128906 C 276.1875 229.863281 278.40625 232.082031 281.144531 232.082031 C 283.878906 232.082031 286.097656 229.863281 286.097656 227.128906 L 286.097656 200.839844 L 324.433594 200.839844 L 326.839844 237.273438 C 324.664062 236.835938 322.421875 236.597656 320.113281 236.597656 C 314.367188 236.597656 308.957031 238.035156 304.277344 240.535156 C 299.597656 238.042969 294.191406 236.597656 288.441406 236.597656 C 279.714844 236.597656 271.753906 239.898438 265.960938 245.21875 C 260.058594 250.640625 256.394531 258.144531 256.394531 266.429688 L 256.394531 272.210938 L 253.652344 272.210938 C 253.621094 272.210938 253.582031 272.203125 253.550781 272.203125 L 232.558594 272.21875 C 230.054688 272.21875 227.902344 274.105469 227.640625 276.65625 L 211.390625 429.792969 C 198.742188 429.792969 163.453125 429.792969 163.453125 429.792969 L 148.308594 200.839844 Z M 117.257812 200.839844 L 138.394531 200.839844 L 153.480469 429.085938 C 138.1875 429.257812 94.675781 429.746094 94.675781 429.746094 Z M 236.992188 282.113281 L 248.910156 282.113281 L 258.667969 429.792969 C 247.257812 429.792969 221.316406 429.792969 221.316406 429.792969 Z M 268.582031 429.792969 L 258.824219 282.113281 L 288.058594 282.113281 L 288.058594 296.828125 C 288.058594 299.558594 290.277344 301.78125 293.015625 301.78125 C 295.75 301.78125 297.96875 299.558594 297.96875 296.828125 L 297.96875 282.113281 L 342.25 282.113281 L 342.25 296.828125 C 342.25 299.558594 344.472656 301.78125 347.207031 301.78125 C 349.941406 301.78125 352.164062 299.558594 352.164062 296.828125 L 352.164062 282.113281 L 371.640625 282.113281 L 381.398438 429.792969 Z M 268.582031 429.792969 " fill-opacity="1" fill-rule="nonzero"/></g></svg>