<svg xmlns="http://www.w3.org/2000/svg" xmlns:xlink="http://www.w3.org/1999/xlink" width="1024" zoomAndPan="magnify" viewBox="0 0 768 767.999994" height="1024" preserveAspectRatio="xMidYMid meet" version="1.0"><defs><clipPath id="255138c7cf"><path d="M 202 269 L 591.667969 269 L 591.667969 525.425781 L 202 525.425781 Z M 202 269 " clip-rule="nonzero"/></clipPath><clipPath id="c84b0f18bd"><path d="M 176.167969 242.675781 L 574 242.675781 L 574 507 L 176.167969 507 Z M 176.167969 242.675781 " clip-rule="nonzero"/></clipPath></defs><rect x="-76.8" width="921.6" fill="#ffffff" y="-76.799999" height="921.599993" fill-opacity="1"/><rect x="-76.8" width="921.6" fill="#ffffff" y="-76.799999" height="921.599993" fill-opacity="1"/><g clip-path="url(#255138c7cf)"><path fill="#38b6ff" d="M 591.664062 294.375 L 591.664062 500.433594 C 591.664062 514.15625 580.402344 525.425781 566.691406 525.425781 L 227.101562 525.425781 C 213.390625 525.425781 202.128906 514.15625 202.128906 500.433594 L 202.128906 294.375 C 202.128906 280.652344 213.390625 269.382812 227.101562 269.382812 L 566.691406 269.382812 C 580.402344 269.628906 591.664062 280.652344 591.664062 294.375 Z M 591.664062 294.375 " fill-opacity="1" fill-rule="nonzero"/></g><path fill="#fafafa" d="M 569.382812 271.34375 L 569.382812 477.402344 C 569.382812 491.121094 558.121094 502.394531 544.410156 502.394531 L 204.820312 502.394531 C 191.109375 502.394531 179.847656 491.121094 179.847656 477.402344 L 179.847656 271.34375 C 179.847656 257.621094 191.109375 246.351562 204.820312 246.351562 L 544.410156 246.351562 C 558.121094 246.351562 569.382812 257.375 569.382812 271.34375 Z M 569.382812 271.34375 " fill-opacity="1" fill-rule="nonzero"/><g clip-path="url(#c84b0f18bd)"><path fill="#004aad" d="M 544.410156 506.070312 L 204.820312 506.070312 C 189.152344 506.070312 176.175781 493.328125 176.175781 477.402344 L 176.175781 271.34375 C 176.175781 255.660156 188.90625 242.675781 204.820312 242.675781 L 544.410156 242.675781 C 560.078125 242.675781 573.054688 255.417969 573.054688 271.34375 L 573.054688 477.402344 C 573.054688 493.082031 560.078125 506.070312 544.410156 506.070312 Z M 204.820312 250.027344 C 193.070312 250.027344 183.519531 259.582031 183.519531 271.34375 L 183.519531 477.402344 C 183.519531 489.164062 193.070312 498.71875 204.820312 498.71875 L 544.410156 498.71875 C 556.160156 498.71875 565.710938 489.164062 565.710938 477.402344 L 565.710938 271.34375 C 565.710938 259.582031 556.160156 250.027344 544.410156 250.027344 Z M 204.820312 250.027344 " fill-opacity="1" fill-rule="nonzero"/></g><path fill="#38b6ff" d="M 539.757812 428.398438 L 390.164062 428.398438 C 388.203125 428.398438 386.492188 426.683594 386.492188 424.722656 C 386.492188 422.761719 388.203125 421.046875 390.164062 421.046875 L 539.757812 421.046875 C 541.714844 421.046875 543.429688 422.761719 543.429688 424.722656 C 543.429688 426.683594 541.714844 428.398438 539.757812 428.398438 Z M 539.757812 428.398438 " fill-opacity="1" fill-rule="nonzero"/><path fill="#38b6ff" d="M 539.757812 467.355469 L 390.164062 467.355469 C 388.203125 467.355469 386.492188 465.640625 386.492188 463.679688 C 386.492188 461.722656 388.203125 460.003906 390.164062 460.003906 L 539.757812 460.003906 C 541.714844 460.003906 543.429688 461.722656 543.429688 463.679688 C 543.429688 465.640625 541.714844 467.355469 539.757812 467.355469 Z M 539.757812 467.355469 " fill-opacity="1" fill-rule="nonzero"/><path fill="#38b6ff" d="M 525.800781 392.136719 L 403.875 392.136719 C 392.367188 392.136719 383.0625 382.824219 383.0625 371.308594 L 383.0625 370.328125 C 383.0625 358.8125 392.367188 349.503906 403.875 349.503906 L 525.800781 349.503906 C 537.308594 349.503906 546.613281 358.8125 546.613281 370.328125 L 546.613281 371.308594 C 546.859375 382.824219 537.308594 392.136719 525.800781 392.136719 Z M 403.875 356.609375 C 396.285156 356.609375 390.40625 362.734375 390.40625 370.085938 L 390.40625 371.066406 C 390.40625 378.660156 396.527344 384.539062 403.875 384.539062 L 525.800781 384.539062 C 533.390625 384.539062 539.269531 378.414062 539.269531 371.066406 L 539.269531 370.085938 C 539.269531 362.488281 533.148438 356.609375 525.800781 356.609375 Z M 403.875 356.609375 " fill-opacity="1" fill-rule="nonzero"/><path fill="#38b6ff" d="M 344.625 471.03125 L 221.226562 471.03125 C 212.902344 471.03125 206.046875 464.171875 206.046875 455.839844 L 206.046875 321.570312 C 206.046875 313.242188 212.902344 306.378906 221.226562 306.378906 L 344.625 306.378906 C 352.949219 306.378906 359.804688 313.242188 359.804688 321.570312 L 359.804688 456.085938 C 359.558594 464.417969 352.949219 471.03125 344.625 471.03125 Z M 344.625 471.03125 " fill-opacity="1" fill-rule="nonzero"/><path fill="#004aad" d="M 315.488281 370.328125 C 315.488281 371.371094 315.4375 372.414062 315.335938 373.453125 C 315.234375 374.488281 315.078125 375.519531 314.875 376.542969 C 314.671875 377.566406 314.421875 378.578125 314.117188 379.574219 C 313.816406 380.574219 313.464844 381.554688 313.066406 382.519531 C 312.667969 383.484375 312.222656 384.425781 311.730469 385.34375 C 311.238281 386.265625 310.703125 387.15625 310.125 388.027344 C 309.542969 388.894531 308.925781 389.730469 308.261719 390.535156 C 307.601562 391.34375 306.902344 392.113281 306.164062 392.851562 C 305.429688 393.589844 304.65625 394.289062 303.851562 394.953125 C 303.046875 395.613281 302.210938 396.234375 301.34375 396.8125 C 300.476562 397.394531 299.582031 397.929688 298.664062 398.421875 C 297.742188 398.914062 296.804688 399.359375 295.839844 399.757812 C 294.875 400.15625 293.894531 400.507812 292.898438 400.808594 C 291.902344 401.113281 290.890625 401.367188 289.867188 401.570312 C 288.847656 401.773438 287.816406 401.925781 286.777344 402.027344 C 285.742188 402.128906 284.703125 402.183594 283.660156 402.183594 C 282.617188 402.183594 281.578125 402.128906 280.539062 402.027344 C 279.503906 401.925781 278.472656 401.773438 277.449219 401.570312 C 276.425781 401.367188 275.417969 401.113281 274.421875 400.808594 C 273.421875 400.507812 272.441406 400.15625 271.480469 399.757812 C 270.515625 399.359375 269.574219 398.914062 268.65625 398.421875 C 267.734375 397.929688 266.84375 397.394531 265.976562 396.8125 C 265.109375 396.234375 264.273438 395.613281 263.46875 394.953125 C 262.660156 394.289062 261.890625 393.589844 261.152344 392.851562 C 260.414062 392.113281 259.714844 391.34375 259.054688 390.535156 C 258.394531 389.730469 257.773438 388.894531 257.195312 388.027344 C 256.617188 387.15625 256.082031 386.265625 255.589844 385.34375 C 255.097656 384.425781 254.652344 383.484375 254.253906 382.519531 C 253.855469 381.554688 253.503906 380.574219 253.203125 379.574219 C 252.898438 378.578125 252.644531 377.566406 252.441406 376.542969 C 252.238281 375.519531 252.085938 374.488281 251.984375 373.453125 C 251.882812 372.414062 251.832031 371.371094 251.832031 370.328125 C 251.832031 369.285156 251.882812 368.246094 251.984375 367.207031 C 252.085938 366.167969 252.238281 365.136719 252.441406 364.117188 C 252.644531 363.09375 252.898438 362.082031 253.203125 361.082031 C 253.503906 360.085938 253.855469 359.105469 254.253906 358.140625 C 254.652344 357.175781 255.097656 356.234375 255.589844 355.3125 C 256.082031 354.394531 256.617188 353.5 257.195312 352.632812 C 257.773438 351.765625 258.394531 350.929688 259.054688 350.121094 C 259.714844 349.316406 260.414062 348.542969 261.152344 347.804688 C 261.890625 347.070312 262.660156 346.367188 263.46875 345.707031 C 264.273438 345.046875 265.109375 344.425781 265.976562 343.84375 C 266.84375 343.265625 267.734375 342.730469 268.65625 342.238281 C 269.574219 341.746094 270.515625 341.300781 271.480469 340.902344 C 272.441406 340.503906 273.421875 340.152344 274.421875 339.847656 C 275.417969 339.546875 276.425781 339.292969 277.449219 339.089844 C 278.472656 338.886719 279.503906 338.734375 280.539062 338.628906 C 281.578125 338.527344 282.617188 338.476562 283.660156 338.476562 C 284.703125 338.476562 285.742188 338.527344 286.777344 338.628906 C 287.816406 338.734375 288.847656 338.886719 289.867188 339.089844 C 290.890625 339.292969 291.902344 339.546875 292.898438 339.847656 C 293.894531 340.152344 294.875 340.503906 295.839844 340.902344 C 296.804688 341.300781 297.742188 341.746094 298.664062 342.238281 C 299.582031 342.730469 300.476562 343.265625 301.34375 343.84375 C 302.210938 344.425781 303.046875 345.046875 303.851562 345.707031 C 304.65625 346.367188 305.429688 347.070312 306.164062 347.804688 C 306.902344 348.542969 307.601562 349.316406 308.261719 350.121094 C 308.925781 350.929688 309.542969 351.765625 310.125 352.632812 C 310.703125 353.5 311.238281 354.394531 311.730469 355.3125 C 312.222656 356.234375 312.667969 357.175781 313.066406 358.140625 C 313.464844 359.105469 313.816406 360.085938 314.117188 361.082031 C 314.421875 362.082031 314.671875 363.09375 314.875 364.117188 C 315.078125 365.136719 315.234375 366.167969 315.335938 367.207031 C 315.4375 368.246094 315.488281 369.285156 315.488281 370.328125 Z M 315.488281 370.328125 " fill-opacity="1" fill-rule="nonzero"/><path fill="#004aad" d="M 232.976562 438.445312 C 226.855469 447.753906 223.429688 459.027344 223.429688 471.03125 C 223.675781 471.03125 343.890625 471.03125 344.132812 471.03125 C 344.132812 437.710938 316.957031 410.757812 283.660156 410.757812 C 262.359375 410.757812 243.75 421.78125 232.976562 438.445312 Z M 232.976562 438.445312 " fill-opacity="1" fill-rule="nonzero"/><path fill="#004aad" d="M 395.792969 281.144531 L 353.4375 281.144531 C 351.480469 281.144531 349.765625 279.429688 349.765625 277.46875 C 349.765625 275.507812 351.480469 273.792969 353.4375 273.792969 L 396.039062 273.792969 C 397.996094 273.792969 399.710938 275.507812 399.710938 277.46875 C 399.46875 279.429688 397.753906 281.144531 395.792969 281.144531 Z M 395.792969 281.144531 " fill-opacity="1" fill-rule="nonzero"/></svg>