<svg xmlns="http://www.w3.org/2000/svg" xmlns:xlink="http://www.w3.org/1999/xlink" width="1024" zoomAndPan="magnify" viewBox="0 0 768 767.999994" height="1024" preserveAspectRatio="xMidYMid meet" version="1.0"><defs><clipPath id="f7010e2888"><path d="M 473 149.347656 L 587 149.347656 L 587 456.847656 L 473 456.847656 Z M 473 149.347656 " clip-rule="nonzero"/></clipPath><clipPath id="49f3ece0ed"><path d="M 334 149 L 498 149 L 498 469 L 334 469 Z M 334 149 " clip-rule="nonzero"/></clipPath><clipPath id="d05c7643a1"><path d="M 206.011719 298.800781 L 439.042969 98.171875 L 626.460938 315.855469 L 393.429688 516.488281 Z M 206.011719 298.800781 " clip-rule="nonzero"/></clipPath><clipPath id="39077a093e"><path d="M 206.011719 298.800781 L 439.042969 98.171875 L 626.460938 315.855469 L 393.429688 516.488281 Z M 206.011719 298.800781 " clip-rule="nonzero"/></clipPath><clipPath id="5c49ab236f"><path d="M 206.011719 298.800781 L 439.042969 98.171875 L 626.460938 315.855469 L 393.429688 516.488281 Z M 206.011719 298.800781 " clip-rule="nonzero"/></clipPath><clipPath id="94e3a76e0e"><path d="M 461 235 L 465 235 L 465 273 L 461 273 Z M 461 235 " clip-rule="nonzero"/></clipPath><clipPath id="2e999a60f2"><path d="M 206.011719 298.800781 L 439.042969 98.171875 L 626.460938 315.855469 L 393.429688 516.488281 Z M 206.011719 298.800781 " clip-rule="nonzero"/></clipPath><clipPath id="4ea0b0e6db"><path d="M 206.011719 298.800781 L 439.042969 98.171875 L 626.460938 315.855469 L 393.429688 516.488281 Z M 206.011719 298.800781 " clip-rule="nonzero"/></clipPath><clipPath id="3e6569e272"><path d="M 206.011719 298.800781 L 439.042969 98.171875 L 626.460938 315.855469 L 393.429688 516.488281 Z M 206.011719 298.800781 " clip-rule="nonzero"/></clipPath><clipPath id="65a198c4cd"><path d="M 456 356 L 462 356 L 462 422 L 456 422 Z M 456 356 " clip-rule="nonzero"/></clipPath><clipPath id="190890e508"><path d="M 206.011719 298.800781 L 439.042969 98.171875 L 626.460938 315.855469 L 393.429688 516.488281 Z M 206.011719 298.800781 " clip-rule="nonzero"/></clipPath><clipPath id="d8d0f49ad9"><path d="M 206.011719 298.800781 L 439.042969 98.171875 L 626.460938 315.855469 L 393.429688 516.488281 Z M 206.011719 298.800781 " clip-rule="nonzero"/></clipPath><clipPath id="ae398a636d"><path d="M 206.011719 298.800781 L 439.042969 98.171875 L 626.460938 315.855469 L 393.429688 516.488281 Z M 206.011719 298.800781 " clip-rule="nonzero"/></clipPath><clipPath id="eda957b9c3"><path d="M 455 295 L 461 295 L 461 334 L 455 334 Z M 455 295 " clip-rule="nonzero"/></clipPath><clipPath id="ced79411eb"><path d="M 206.011719 298.800781 L 439.042969 98.171875 L 626.460938 315.855469 L 393.429688 516.488281 Z M 206.011719 298.800781 " clip-rule="nonzero"/></clipPath><clipPath id="3d78d6f498"><path d="M 206.011719 298.800781 L 439.042969 98.171875 L 626.460938 315.855469 L 393.429688 516.488281 Z M 206.011719 298.800781 " clip-rule="nonzero"/></clipPath><clipPath id="93ecc651da"><path d="M 206.011719 298.800781 L 439.042969 98.171875 L 626.460938 315.855469 L 393.429688 516.488281 Z M 206.011719 298.800781 " clip-rule="nonzero"/></clipPath><clipPath id="95664fb206"><path d="M 402 438 L 457 438 L 457 458 L 402 458 Z M 402 438 " clip-rule="nonzero"/></clipPath><clipPath id="bf1ca7c2ee"><path d="M 206.011719 298.800781 L 439.042969 98.171875 L 626.460938 315.855469 L 393.429688 516.488281 Z M 206.011719 298.800781 " clip-rule="nonzero"/></clipPath><clipPath id="fa0db83f96"><path d="M 206.011719 298.800781 L 439.042969 98.171875 L 626.460938 315.855469 L 393.429688 516.488281 Z M 206.011719 298.800781 " clip-rule="nonzero"/></clipPath><clipPath id="1d4a51e9d4"><path d="M 206.011719 298.800781 L 439.042969 98.171875 L 626.460938 315.855469 L 393.429688 516.488281 Z M 206.011719 298.800781 " clip-rule="nonzero"/></clipPath><clipPath id="422dcfed8a"><path d="M 366 240 L 419 240 L 419 245 L 366 245 Z M 366 240 " clip-rule="nonzero"/></clipPath><clipPath id="fceed154cf"><path d="M 206.011719 298.800781 L 439.042969 98.171875 L 626.460938 315.855469 L 393.429688 516.488281 Z M 206.011719 298.800781 " clip-rule="nonzero"/></clipPath><clipPath id="e34052ff07"><path d="M 206.011719 298.800781 L 439.042969 98.171875 L 626.460938 315.855469 L 393.429688 516.488281 Z M 206.011719 298.800781 " clip-rule="nonzero"/></clipPath><clipPath id="01fdf12547"><path d="M 206.011719 298.800781 L 439.042969 98.171875 L 626.460938 315.855469 L 393.429688 516.488281 Z M 206.011719 298.800781 " clip-rule="nonzero"/></clipPath><clipPath id="d0043b805f"><path d="M 345 414 L 391 414 L 391 454 L 345 454 Z M 345 414 " clip-rule="nonzero"/></clipPath><clipPath id="bfdb3f75e2"><path d="M 206.011719 298.800781 L 439.042969 98.171875 L 626.460938 315.855469 L 393.429688 516.488281 Z M 206.011719 298.800781 " clip-rule="nonzero"/></clipPath><clipPath id="36ce91fdfb"><path d="M 206.011719 298.800781 L 439.042969 98.171875 L 626.460938 315.855469 L 393.429688 516.488281 Z M 206.011719 298.800781 " clip-rule="nonzero"/></clipPath><clipPath id="3a018eb273"><path d="M 206.011719 298.800781 L 439.042969 98.171875 L 626.460938 315.855469 L 393.429688 516.488281 Z M 206.011719 298.800781 " clip-rule="nonzero"/></clipPath><clipPath id="fbdec97fa7"><path d="M 346 237 L 350 237 L 350 304 L 346 304 Z M 346 237 " clip-rule="nonzero"/></clipPath><clipPath id="b20085c15a"><path d="M 206.011719 298.800781 L 439.042969 98.171875 L 626.460938 315.855469 L 393.429688 516.488281 Z M 206.011719 298.800781 " clip-rule="nonzero"/></clipPath><clipPath id="43b668ce38"><path d="M 206.011719 298.800781 L 439.042969 98.171875 L 626.460938 315.855469 L 393.429688 516.488281 Z M 206.011719 298.800781 " clip-rule="nonzero"/></clipPath><clipPath id="17ab3fd4e5"><path d="M 206.011719 298.800781 L 439.042969 98.171875 L 626.460938 315.855469 L 393.429688 516.488281 Z M 206.011719 298.800781 " clip-rule="nonzero"/></clipPath><clipPath id="819ec04d9e"><path d="M 344 360 L 348 360 L 348 410 L 344 410 Z M 344 360 " clip-rule="nonzero"/></clipPath><clipPath id="43db84bec5"><path d="M 206.011719 298.800781 L 439.042969 98.171875 L 626.460938 315.855469 L 393.429688 516.488281 Z M 206.011719 298.800781 " clip-rule="nonzero"/></clipPath><clipPath id="0092c27edf"><path d="M 206.011719 298.800781 L 439.042969 98.171875 L 626.460938 315.855469 L 393.429688 516.488281 Z M 206.011719 298.800781 " clip-rule="nonzero"/></clipPath><clipPath id="46bf527580"><path d="M 206.011719 298.800781 L 439.042969 98.171875 L 626.460938 315.855469 L 393.429688 516.488281 Z M 206.011719 298.800781 " clip-rule="nonzero"/></clipPath><clipPath id="fcb3eec729"><path d="M 354.253906 529 L 553 529 L 553 540 L 354.253906 540 Z M 354.253906 529 " clip-rule="nonzero"/></clipPath><clipPath id="aa299ac72b"><path d="M 354.820312 413.121094 L 591.253906 413.121094 L 591.253906 526.21875 L 354.820312 526.21875 Z M 354.820312 413.121094 " clip-rule="nonzero"/></clipPath><clipPath id="b68b9eb6e0"><path d="M 439 228.164062 L 492 228.164062 L 492 386 L 439 386 Z M 439 228.164062 " clip-rule="nonzero"/></clipPath><clipPath id="fd383304cc"><path d="M 107 377 L 345 377 L 345 543 L 107 543 Z M 107 377 " clip-rule="nonzero"/></clipPath><clipPath id="ad20883c15"><path d="M 325.910156 370.648438 L 354.292969 533.1875 L 124.519531 573.308594 L 96.136719 410.769531 Z M 325.910156 370.648438 " clip-rule="nonzero"/></clipPath><clipPath id="ac1a471146"><path d="M 399.097656 357.867188 L 427.476562 520.410156 L 124.5625 573.300781 L 96.179688 410.761719 Z M 399.097656 357.867188 " clip-rule="nonzero"/></clipPath></defs><rect x="-76.8" width="921.6" fill="#ffffff" y="-76.799999" height="921.599993" fill-opacity="1"/><rect x="-76.8" width="921.6" fill="#ffffff" y="-76.799999" height="921.599993" fill-opacity="1"/><g clip-path="url(#f7010e2888)"><path fill="#000000" d="M 541.800781 155.894531 C 541.761719 155.855469 541.734375 155.824219 541.691406 155.785156 C 535.277344 153.046875 523.785156 153.84375 518.101562 156.164062 C 521.203125 157.183594 525.777344 156.613281 528.640625 156.492188 C 532.734375 156.351562 537.546875 156.542969 541.800781 155.894531 Z M 542.5625 173.183594 C 542.441406 170.0625 543.0625 166.867188 542.234375 163.828125 C 542.214844 163.75 542.214844 163.660156 542.203125 163.578125 C 537.476562 164.867188 532.503906 164.90625 527.550781 164.679688 C 523.867188 164.527344 520.683594 164.4375 517.699219 163.320312 C 517.699219 163.488281 517.667969 163.660156 517.609375 163.828125 C 516.808594 166.707031 517.347656 169.753906 517.300781 172.730469 C 521.5625 173.910156 526.519531 174.03125 530.914062 174.203125 C 534.6875 174.339844 538.96875 174.890625 542.511719 173.320312 C 542.535156 173.273438 542.542969 173.230469 542.5625 173.183594 Z M 544.625 159.921875 C 545.046875 159.761719 545.296875 159.441406 545.296875 159.632812 C 545.296875 159.300781 545.296875 158.933594 545.046875 158.503906 C 544.9375 158.3125 544.816406 158.121094 544.695312 157.953125 C 538.628906 159.511719 531.292969 159.113281 525.085938 159.113281 C 521.863281 159.113281 518.121094 159.640625 515.316406 157.742188 C 515.117188 157.980469 514.945312 158.261719 514.808594 158.542969 C 520.890625 164.15625 535.925781 163.457031 544.015625 160.210938 C 544.203125 160.109375 544.40625 159.992188 544.625 159.921875 Z M 571.640625 187.183594 C 562.523438 183.023438 552.882812 180.15625 543.722656 176.050781 C 543.5625 175.980469 543.433594 175.898438 543.292969 175.808594 C 539.480469 177.410156 535.007812 177.019531 530.914062 176.800781 C 526.386719 176.539062 521.492188 176.5 517.058594 175.339844 C 516.847656 175.621094 516.539062 175.878906 516.136719 176.050781 C 507.039062 180.136719 497.46875 182.976562 488.402344 187.101562 C 495.15625 188.460938 501.835938 188.152344 508.75 188.53125 C 516.347656 188.929688 523.90625 189.570312 531.503906 189.730469 C 545.355469 190.019531 558.167969 189.242188 571.640625 187.183594 Z M 575.816406 209.738281 C 576.003906 202.902344 574.324219 196.234375 573.894531 189.441406 C 558.578125 191.890625 543.964844 192.847656 528.257812 192.269531 C 514.617188 191.789062 499.300781 192.589844 485.96875 189.230469 C 485.546875 196.085938 483.835938 202.8125 484.046875 209.738281 C 484.046875 209.757812 484.046875 209.757812 484.046875 209.777344 C 484.066406 209.875 484.097656 209.964844 484.128906 210.066406 C 484.167969 210.097656 484.238281 210.246094 484.308594 210.367188 C 484.328125 210.394531 484.378906 210.4375 484.425781 210.496094 C 491.984375 211.746094 498.972656 214.273438 506.777344 214.582031 C 514.265625 214.894531 521.773438 214.953125 529.28125 214.894531 C 544.554688 214.792969 559.761719 213.445312 574.8125 210.824219 C 574.863281 210.816406 574.894531 210.816406 574.933594 210.816406 C 574.984375 210.816406 575.035156 210.816406 575.074219 210.816406 C 575.15625 210.765625 575.203125 210.726562 575.246094 210.707031 C 575.265625 210.695312 575.265625 210.695312 575.292969 210.65625 C 575.335938 210.625 575.523438 210.367188 575.554688 210.328125 C 575.625 210.207031 575.714844 210.054688 575.726562 210.054688 C 575.746094 209.964844 575.785156 209.875 575.816406 209.777344 C 575.816406 209.757812 575.816406 209.757812 575.816406 209.738281 Z M 581.230469 409.027344 C 581.480469 398.316406 580.921875 387.496094 580.839844 376.761719 C 580.761719 364.910156 580.570312 353.027344 580.269531 341.175781 C 580.03125 330.824219 581.019531 320.511719 580.621094 310.1875 C 580.199219 299.316406 580.378906 287.914062 581.121094 277.070312 C 581.5 271.445312 581.941406 264.789062 578.796875 259.753906 C 576.40625 255.886719 572.921875 253.238281 570.078125 249.757812 C 567.265625 246.3125 565.113281 239.925781 567.566406 235.707031 C 571.3125 229.214844 585.023438 224.746094 574.503906 216.121094 C 559.570312 218.621094 544.414062 220.140625 529.28125 220.089844 C 520.753906 220.070312 512.113281 220.320312 503.605469 219.589844 C 497.328125 219.050781 491.585938 217.179688 485.539062 215.972656 C 485.5 215.992188 485.488281 216.023438 485.449219 216.042969 C 477.75 222.289062 483.605469 227.964844 489.28125 232.019531 C 490.613281 232.992188 492.144531 234.679688 492.554688 236.328125 C 493.945312 241.882812 492.386719 247.492188 488.269531 251.597656 C 484.148438 255.714844 480.214844 259.332031 479.09375 265.386719 C 477.941406 271.535156 479.121094 277.460938 478.863281 283.636719 C 478.460938 293.328125 479.191406 303.140625 479.121094 312.875 C 478.960938 335.199219 479.09375 357.613281 479.003906 380 C 478.960938 390.371094 477.609375 401.375 478.933594 411.65625 C 479.691406 417.59375 476.691406 439.226562 483.054688 444.023438 C 483.558594 443.945312 484.128906 444.023438 484.707031 444.34375 C 498.121094 451.820312 514.496094 450.402344 529.351562 450.929688 C 544.296875 451.449219 560.179688 451.449219 574.113281 445.464844 C 574.414062 445.175781 574.773438 444.945312 575.265625 444.804688 C 582.0625 442.914062 580.289062 428.375 580.378906 423.449219 C 580.46875 418.621094 581.121094 413.824219 581.230469 409.027344 Z M 586.273438 399.734375 C 586.636719 411.796875 585.734375 424.089844 585.214844 436.191406 C 585.023438 440.6875 584.242188 444.542969 581.5625 447.144531 C 581.351562 447.542969 581.019531 447.902344 580.5 448.183594 C 580.058594 448.402344 579.628906 448.613281 579.179688 448.820312 C 579.039062 448.910156 578.886719 448.980469 578.71875 449.050781 C 563.453125 456.40625 545.957031 456.757812 529.351562 456.125 C 514.226562 455.558594 498.070312 456.6875 484.167969 449.890625 C 483.878906 449.929688 483.558594 449.910156 483.214844 449.8125 C 474.957031 447.523438 474.796875 440.378906 474.578125 432.960938 C 474.199219 420.75 473.46875 408.648438 473.65625 396.449219 C 474.078125 369.597656 473.707031 342.734375 473.898438 315.933594 C 473.988281 303.042969 474.429688 289.941406 473.535156 277.070312 C 472.964844 268.804688 473.417969 259.5625 479.414062 253.097656 C 483.855469 248.320312 493.386719 240.605469 483.765625 234.597656 C 481.015625 232.878906 479.191406 231.183594 477.539062 228.402344 C 474.648438 223.496094 476.730469 217.492188 480.355469 213.683594 C 479.691406 212.875 479.210938 211.925781 478.933594 210.867188 C 478.863281 210.574219 478.84375 210.257812 478.882812 209.976562 C 478.863281 209.898438 478.84375 209.828125 478.84375 209.738281 C 478.621094 201.953125 480.824219 194.417969 480.875 186.644531 C 480.875 185.542969 481.464844 184.792969 482.246094 184.433594 C 482.414062 184.253906 482.625 184.105469 482.886719 183.984375 C 492.335938 179.289062 502.476562 176.351562 512.132812 172.164062 C 512.152344 169.472656 511.875 166.796875 512.253906 164.128906 C 510.003906 162.710938 508.652344 160.230469 509.652344 157.414062 C 510.671875 154.59375 512.824219 152.316406 515.726562 151.40625 C 515.976562 151.316406 516.25 151.285156 516.488281 151.285156 C 521.632812 149.398438 527.457031 149.296875 532.902344 149.367188 C 537.359375 149.417969 541.433594 149.816406 545.164062 151.804688 C 545.925781 152.167969 546.675781 152.636719 547.347656 153.1875 C 547.488281 153.304688 547.648438 153.394531 547.796875 153.515625 C 548.078125 153.746094 548.269531 153.984375 548.410156 154.226562 C 549.320312 155.246094 550 156.421875 550.28125 157.722656 C 550.902344 160.5625 549.789062 162.800781 547.589844 164.148438 C 547.988281 166.804688 547.707031 169.472656 547.726562 172.164062 C 557.386719 176.351562 567.527344 179.289062 576.976562 183.984375 C 577.238281 184.105469 577.425781 184.253906 577.617188 184.433594 C 578.386719 184.792969 578.988281 185.542969 578.988281 186.644531 C 579.027344 194.417969 581.242188 201.953125 581.019531 209.738281 C 581 209.828125 580.980469 209.898438 580.980469 209.976562 C 581 210.257812 580.980469 210.574219 580.921875 210.867188 C 580.648438 211.925781 580.167969 212.855469 579.507812 213.683594 C 583.953125 218.25 584.625 224.488281 581.230469 230.234375 C 579.75 232.742188 576.855469 233.890625 574.585938 235.507812 C 565.984375 241.675781 578.367188 250.449219 581.78125 254.816406 C 588.347656 263.261719 585.785156 273.851562 586.207031 283.636719 C 586.675781 295.109375 586.59375 307.558594 585.824219 319.019531 C 584.011719 345.574219 585.445312 373.113281 586.273438 399.734375 " fill-opacity="1" fill-rule="nonzero"/></g><path fill="#000000" d="M 576.367188 439.097656 C 576.445312 439.160156 576.234375 439.4375 575.765625 439.886719 C 575.523438 440.128906 575.226562 440.40625 574.84375 440.738281 C 574.464844 441.015625 573.964844 441.277344 573.421875 441.605469 C 571.121094 442.835938 567.648438 443.527344 563.554688 444.84375 C 562.523438 445.175781 561.441406 445.503906 560.25 445.824219 C 559.070312 446.171875 557.839844 446.503906 556.585938 446.714844 C 555.964844 446.832031 555.324219 446.972656 554.683594 447.09375 C 553.984375 447.164062 553.292969 447.214844 552.582031 447.28125 C 551.191406 447.402344 549.789062 447.523438 548.339844 447.664062 C 545.425781 447.871094 542.382812 447.8125 539.230469 447.871094 C 536.117188 447.800781 532.875 447.753906 529.5625 447.703125 C 522.933594 447.683594 516.488281 447.214844 510.761719 446.503906 C 504.988281 445.722656 499.960938 444.785156 495.636719 443.964844 C 491.304688 443.117188 487.878906 441.777344 485.738281 440.496094 C 485.207031 440.167969 484.71875 439.867188 484.328125 439.617188 C 483.957031 439.320312 483.648438 439.058594 483.40625 438.847656 C 482.917969 438.417969 482.695312 438.160156 482.746094 438.070312 C 482.796875 437.988281 483.144531 438.089844 483.738281 438.347656 C 484.027344 438.488281 484.378906 438.660156 484.789062 438.867188 C 485.21875 439.039062 485.707031 439.25 486.25 439.476562 C 488.453125 440.398438 491.746094 441.347656 495.988281 441.917969 C 500.253906 442.476562 505.4375 443.226562 511.074219 443.816406 C 516.777344 444.394531 522.933594 444.753906 529.589844 444.773438 C 532.902344 444.804688 536.148438 444.933594 539.269531 444.996094 C 542.375 444.996094 545.375 445.105469 548.207031 444.964844 C 549.621094 444.894531 550.992188 444.804688 552.34375 444.734375 C 552.984375 444.703125 553.625 444.664062 554.246094 444.632812 C 554.90625 444.535156 555.546875 444.425781 556.167969 444.324219 C 557.457031 444.164062 558.617188 443.886719 559.730469 443.625 C 560.832031 443.386719 561.941406 443.117188 563.003906 442.855469 C 567.246094 441.757812 570.808594 441.355469 572.953125 440.566406 C 573.492188 440.335938 573.992188 440.1875 574.394531 439.996094 C 574.792969 439.769531 575.125 439.578125 575.394531 439.429688 C 575.976562 439.128906 576.304688 439.007812 576.367188 439.097656 " fill-opacity="1" fill-rule="nonzero"/><path fill="#000000" d="M 572.03125 221.699219 C 572.089844 221.886719 570.960938 222.328125 568.796875 222.917969 C 567.699219 223.257812 566.386719 223.328125 564.84375 223.566406 C 563.261719 223.796875 561.550781 223.96875 559.609375 224.175781 C 551.871094 224.957031 541.191406 226.183594 529.242188 226.664062 C 517.300781 227.132812 506.378906 226.304688 498.691406 224.578125 C 490.945312 222.917969 486.558594 220.867188 486.640625 220.558594 C 486.769531 220.089844 491.445312 221.457031 499.042969 222.546875 C 506.667969 223.726562 517.339844 224.207031 529.140625 223.746094 C 540.933594 223.277344 551.660156 222.378906 559.46875 222.117188 C 561.410156 222.046875 563.164062 222 564.703125 221.957031 C 566.226562 221.859375 567.617188 221.957031 568.636719 221.789062 C 570.75 221.546875 571.980469 221.507812 572.03125 221.699219 " fill-opacity="1" fill-rule="nonzero"/><path fill="#000000" d="M 571.902344 264.398438 C 572 264.71875 567.445312 266.636719 559.640625 268.125 C 557.679688 268.484375 555.546875 268.855469 553.222656 269.097656 C 550.902344 269.40625 548.417969 269.546875 545.804688 269.714844 C 540.570312 269.964844 534.796875 269.90625 528.78125 269.503906 C 516.730469 268.625 505.976562 266.726562 498.261719 265.167969 C 490.5625 263.570312 485.847656 262.339844 485.917969 261.949219 C 485.988281 261.550781 490.84375 262.070312 498.609375 263.121094 C 506.386719 264.160156 517.109375 265.738281 528.96875 266.585938 C 534.894531 266.988281 540.570312 267.105469 545.707031 267.039062 C 548.269531 266.925781 550.710938 266.898438 553.003906 266.667969 C 555.277344 266.546875 557.386719 266.308594 559.328125 266.085938 C 567.046875 265.148438 571.761719 263.9375 571.902344 264.398438 " fill-opacity="1" fill-rule="nonzero"/><g clip-path="url(#49f3ece0ed)"><g clip-path="url(#d05c7643a1)"><g clip-path="url(#39077a093e)"><g clip-path="url(#5c49ab236f)"><path fill="#000000" d="M 420.710938 170.550781 C 419.03125 161.574219 411.25 162.925781 403.90625 162.855469 C 397.878906 162.804688 388.496094 161.949219 386.742188 169.125 C 390.679688 171.859375 397.507812 172.113281 401.921875 172.324219 C 408.367188 172.632812 414.535156 172.09375 420.710938 170.550781 Z M 445.195312 174.15625 C 439.820312 171.910156 429.476562 168.957031 426.851562 170.625 C 427.851562 172.058594 427.605469 174.472656 425.40625 175.160156 C 416.285156 177.96875 407.078125 178.738281 397.605469 177.582031 C 392.21875 176.902344 386.5 176.363281 382.214844 172.820312 C 381.496094 172.515625 380.949219 171.921875 380.820312 171.007812 C 375.378906 170.972656 369.816406 171.402344 364.746094 173.292969 C 378.46875 178 392.765625 179.390625 407.347656 179.453125 C 420.074219 179.519531 433.492188 179.5625 445.195312 174.15625 Z M 449.109375 194.972656 C 448.347656 189.714844 448.15625 184.484375 448.125 179.039062 C 447.011719 179.570312 445.914062 180.074219 444.773438 180.511719 C 444.707031 189.644531 444.0625 192.261719 443.289062 192.253906 C 442.550781 192.253906 441.9375 189.824219 441.925781 181.535156 C 441.140625 181.78125 440.363281 182.023438 439.59375 182.246094 C 439.691406 191.058594 439.128906 193.8125 438.382812 193.804688 C 437.652344 193.800781 436.996094 191.1875 436.757812 182.949219 C 435.445312 183.25 434.136719 183.507812 432.816406 183.75 C 432.859375 185.550781 432.867188 187.128906 432.863281 188.496094 C 432.871094 190.421875 432.839844 191.964844 432.753906 193.117188 C 432.59375 195.433594 432.289062 196.304688 431.886719 196.300781 C 431.488281 196.292969 431.09375 195.425781 430.726562 193.160156 C 430.566406 192.027344 430.386719 190.5625 430.242188 188.648438 C 430.160156 187.359375 430.0625 185.859375 430 184.175781 C 428.15625 184.414062 427.121094 183.984375 426.675781 185.847656 C 426.34375 187.117188 426.582031 188.664062 426.609375 189.960938 C 426.644531 190.984375 427.242188 196.125 425.398438 196.140625 C 424.625 196.132812 423.976562 193.433594 423.886719 184.796875 C 422.632812 184.875 421.367188 184.941406 420.113281 184.996094 C 420.261719 186.492188 420.339844 187.824219 420.410156 188.945312 C 420.410156 190.539062 420.308594 191.765625 420.203125 192.714844 C 419.992188 194.59375 419.640625 195.300781 419.242188 195.292969 C 418.867188 195.292969 418.488281 194.582031 418.191406 192.746094 C 418.03125 191.835938 417.925781 190.640625 417.785156 189.105469 C 417.617188 187.960938 417.453125 186.640625 417.292969 185.078125 C 416.410156 185.113281 415.566406 185.125 414.726562 185.148438 C 414.601562 193.492188 413.988281 195.914062 413.242188 195.90625 C 412.488281 195.90625 411.890625 193.476562 411.882812 185.144531 C 410.613281 185.164062 409.34375 185.152344 408.097656 185.148438 C 407.964844 193.550781 407.34375 196.835938 406.605469 196.824219 C 405.839844 196.820312 405.253906 193.535156 405.253906 185.121094 C 403.972656 185.09375 402.707031 185.070312 401.453125 185.035156 C 401.445312 186.636719 401.394531 188.402344 401.355469 189.59375 C 401.230469 191.152344 401.070312 192.613281 400.910156 193.527344 C 400.578125 195.355469 400.191406 196.039062 399.804688 195.996094 C 399.417969 195.953125 399.082031 195.128906 398.898438 193.300781 C 398.792969 192.394531 398.765625 191.09375 398.710938 189.585938 C 398.664062 188.367188 398.632812 186.566406 398.609375 184.914062 C 397.394531 184.855469 396.164062 184.785156 394.949219 184.71875 C 394.820312 187.097656 394.675781 189.089844 394.511719 190.722656 C 394.453125 192.449219 394.386719 193.789062 394.273438 194.832031 C 394.042969 196.902344 393.703125 197.699219 393.324219 197.710938 C 392.921875 197.710938 392.550781 196.949219 392.261719 194.863281 C 392.113281 193.816406 391.964844 192.453125 391.902344 190.691406 C 391.914062 189.003906 391.980469 186.953125 392.105469 184.507812 C 389.945312 184.332031 387.777344 184.109375 385.644531 183.832031 C 385.542969 191.898438 385.773438 194.304688 384.960938 194.511719 C 384.578125 194.582031 384.109375 193.898438 383.566406 191.898438 C 383.160156 190.171875 382.839844 187.402344 382.800781 183.4375 C 380.996094 183.164062 379.226562 182.875 377.441406 182.519531 C 377.285156 193.375 376.664062 195.414062 375.941406 195.417969 C 375.207031 195.410156 374.609375 193.296875 374.597656 181.945312 C 373.210938 181.632812 371.835938 181.300781 370.46875 180.933594 C 370.421875 181.816406 370.394531 182.644531 370.378906 183.410156 C 370.371094 184.621094 370.359375 185.695312 370.34375 186.683594 C 370.238281 188.691406 370.171875 190.269531 369.921875 191.457031 C 369.371094 193.847656 368.914062 194.65625 368.515625 194.585938 C 368.136719 194.507812 367.894531 193.550781 367.902344 191.300781 C 367.898438 190.164062 367.753906 188.636719 367.726562 186.707031 C 367.667969 185.71875 367.636719 184.640625 367.589844 183.425781 C 367.617188 182.417969 367.621094 181.320312 367.640625 180.164062 C 366.472656 179.820312 365.3125 179.457031 364.164062 179.070312 C 364.199219 179.636719 364.214844 180.289062 364.25 180.738281 C 364.371094 181.785156 364.503906 182.332031 364.589844 183.167969 C 364.75 184.910156 364.917969 186.28125 364.851562 187.378906 C 364.675781 189.539062 364.34375 190.316406 363.96875 190.289062 C 363.574219 190.292969 363.171875 189.589844 362.84375 187.640625 C 362.660156 186.671875 362.3125 185.464844 362.011719 183.777344 C 361.847656 182.921875 361.679688 182.171875 361.480469 181.109375 C 361.367188 180.210938 361.316406 178.644531 361.222656 178.050781 C 360.636719 177.839844 360.058594 177.601562 359.453125 177.382812 C 359.441406 183.371094 359.519531 188.828125 360.039062 194.527344 C 367.085938 199.109375 374.878906 199.597656 383.238281 199.730469 C 390.960938 199.863281 398.535156 201.109375 406.253906 201.601562 C 419.902344 202.480469 435.855469 199.253906 449.109375 194.972656 Z M 449.503906 211.457031 C 449.445312 211.359375 449.398438 211.246094 449.34375 211.152344 C 440.75 215.660156 427.792969 215.867188 419.9375 216.378906 C 409.523438 217.070312 399.042969 216.792969 388.671875 215.660156 C 383.933594 215.136719 377.957031 215.066406 373.53125 213.246094 C 369.597656 211.617188 365.183594 211.175781 361.335938 209.300781 C 359.902344 208.617188 358.484375 207.125 356.839844 207.425781 C 355.777344 207.628906 354.304688 208.960938 354.828125 210.234375 C 355.464844 211.683594 357.871094 211.867188 359.140625 212.152344 C 361.167969 212.621094 363.140625 213.402344 365.144531 213.984375 C 369.371094 215.195312 373.707031 216.015625 378.042969 216.585938 C 386.585938 217.6875 395.199219 217.785156 403.792969 217.828125 C 417.773438 217.90625 436.855469 219.398438 449.503906 211.457031 Z M 451.644531 201.414062 C 451.679688 201.320312 451.71875 201.246094 451.753906 201.164062 C 451.527344 200.960938 451.296875 200.769531 451.058594 200.597656 C 450.957031 200.542969 450.90625 200.46875 450.828125 200.40625 C 434.585938 205.664062 416.535156 208.519531 399.625 206.65625 C 392.273438 205.839844 384.859375 206.089844 377.480469 205.453125 C 373.824219 205.125 370.1875 204.625 366.640625 203.644531 C 364.976562 203.15625 363.367188 202.597656 361.835938 201.816406 C 360.960938 201.375 359.410156 200.285156 358.464844 201.398438 C 357.488281 202.574219 358.164062 203.507812 359.527344 204.203125 C 361.960938 205.492188 366.539062 206.117188 367.476562 206.335938 C 372.082031 207.414062 376.707031 208.335938 381.367188 209.09375 C 390.671875 210.582031 400.117188 211.359375 409.558594 211.152344 C 417.996094 210.972656 426.21875 210.027344 434.5625 208.804688 C 439.957031 208.042969 449.386719 207.507812 451.644531 201.414062 Z M 463.289062 223.957031 C 460.25 220.957031 456.890625 218.257812 453.664062 215.445312 C 441.660156 223.332031 424.605469 223.59375 410.851562 223.542969 C 393.367188 223.484375 375.730469 223.988281 359.148438 218.058594 C 355.328125 220.386719 350.429688 220.726562 347.449219 223.796875 C 355.101562 229.140625 367.164062 228.691406 376.054688 229.777344 C 386.648438 231.058594 397.140625 231.558594 407.792969 231.855469 C 418.605469 232.15625 430.429688 233.570312 440.988281 230.667969 C 447.730469 228.816406 456.691406 227.222656 463.289062 223.957031 Z M 469.082031 276.839844 C 469.328125 263.824219 467.710938 251.132812 467.324219 238.199219 C 467.234375 234.917969 467.835938 231.441406 467.273438 228.28125 C 463.371094 230.292969 459.21875 230.808594 454.964844 232.226562 C 448.667969 234.355469 442.53125 236.394531 435.929688 237.320312 C 424.445312 238.894531 412.328125 237.832031 400.78125 237.449219 C 388.417969 237.03125 376.304688 235.253906 364.046875 233.96875 C 357.304688 233.25 350.796875 232.40625 345.109375 228.964844 C 341.003906 279.332031 340.960938 330.054688 340.566406 380.558594 C 340.484375 392.253906 340.570312 403.980469 340.433594 415.667969 C 340.328125 425.015625 339.707031 437.1875 345.671875 445.046875 C 352.679688 454.304688 364.945312 457.46875 375.886719 459.121094 C 387.824219 460.929688 400.082031 463.375 412.179688 463.296875 C 425.496094 463.203125 438.863281 463.652344 450.472656 456.617188 C 455.679688 453.46875 460.140625 450.703125 461.234375 444.3125 C 462.003906 439.867188 463.40625 435.585938 464.34375 431.171875 C 469.5625 406.523438 465.75 379.25 465.628906 354.246094 C 465.476562 328.359375 468.597656 302.675781 469.082031 276.839844 Z M 477.261719 188.527344 C 481.101562 181.890625 485.074219 171.15625 477.632812 165.226562 C 468.945312 158.257812 456.0625 164.175781 444.902344 167.816406 C 448.234375 169.136719 450.976562 170.605469 452.296875 171.699219 C 452.433594 171.839844 452.5625 171.976562 452.671875 172.101562 C 453.339844 172.5625 453.824219 173.339844 453.820312 174.449219 C 453.777344 182.03125 453.707031 188.265625 454.785156 194.914062 C 454.878906 195.402344 454.816406 195.855469 454.703125 196.253906 C 456.742188 197.867188 458.253906 199.96875 459.03125 202.226562 C 466.703125 199.589844 472.96875 195.933594 477.261719 188.527344 Z M 490.714844 184.417969 C 493.753906 172.386719 488.316406 157.976562 474.914062 155.84375 C 460.5 153.558594 445.992188 159.292969 432.328125 164.535156 C 432.984375 164.617188 433.675781 164.710938 434.355469 164.808594 C 434.714844 164.605469 435.144531 164.457031 435.628906 164.402344 C 449.957031 162.949219 478.144531 145.554688 486.070312 167.519531 C 489.210938 176.203125 486.257812 185.933594 480.988281 193.207031 C 475.964844 200.125 470.292969 203.984375 462.953125 206.828125 C 462.96875 206.96875 463.007812 207.117188 463.023438 207.273438 C 475.3125 204.617188 487.511719 197.070312 490.714844 184.417969 Z M 490.777344 158.644531 C 499.742188 168.757812 499.363281 185.476562 491.230469 195.933594 C 483.628906 205.679688 473.507812 211.382812 461.832031 213.292969 C 467.230469 218.175781 474.492188 222.207031 473.402344 230.347656 C 471.675781 243.167969 474.984375 256.476562 474.871094 269.390625 C 474.625 300.144531 470.835938 330.683594 471.410156 361.457031 C 471.699219 377.082031 472.371094 392.730469 471.886719 408.375 C 471.679688 415.3125 471.46875 422.273438 470.519531 429.148438 C 469.839844 434.042969 467.957031 438.640625 467.121094 443.488281 C 465.390625 453.589844 461.871094 456.359375 453.332031 461.535156 C 448.699219 464.339844 444.40625 466.726562 439.128906 467.898438 C 433.847656 469.046875 428.179688 467.84375 422.824219 468.410156 C 407.613281 469.964844 392.636719 467.152344 377.613281 465.09375 C 368.707031 463.875 358.914062 462.101562 351.167969 457.265625 C 332.417969 445.589844 335.242188 425.09375 334.949219 405.707031 C 334.046875 345.589844 334.585938 284.574219 339.746094 224.632812 C 339.847656 223.367188 340.613281 222.550781 341.539062 222.179688 C 343.035156 219.53125 345.230469 217.628906 348.121094 216.449219 C 349.660156 215.824219 351.234375 215.363281 352.75 214.800781 C 350.507812 213.097656 348.90625 210.820312 349.355469 207.707031 C 349.9375 203.859375 353.589844 201.132812 356.597656 199.035156 C 356.3125 198.855469 356.03125 198.695312 355.765625 198.492188 C 354.824219 197.773438 354.488281 196.792969 354.542969 195.863281 C 354.476562 195.621094 354.40625 195.371094 354.363281 195.070312 C 353.722656 188.140625 353.78125 173.976562 353.78125 173.976562 C 353.789062 172.207031 355.046875 171.269531 356.355469 171.164062 C 363.871094 166.09375 373.328125 165.136719 382.175781 165.328125 C 385.523438 158.191406 393.925781 157.082031 402.335938 157.152344 C 410.277344 157.226562 418.484375 156.777344 423.046875 161.953125 C 442.742188 154.933594 473.726562 139.398438 490.777344 158.644531 " fill-opacity="1" fill-rule="nonzero"/></g></g></g></g><g clip-path="url(#94e3a76e0e)"><g clip-path="url(#2e999a60f2)"><g clip-path="url(#4ea0b0e6db)"><g clip-path="url(#3e6569e272)"><path fill="#000000" d="M 464.773438 254.039062 C 464.867188 264.28125 463.910156 272.445312 463.074219 272.464844 C 462.148438 272.460938 461.667969 264.171875 461.566406 254.101562 C 461.464844 249.082031 461.316406 244.523438 461.164062 241.285156 C 460.992188 237.980469 460.917969 235.855469 461.390625 235.785156 C 461.785156 235.730469 462.652344 237.628906 463.402344 240.914062 C 464.167969 244.277344 464.65625 248.898438 464.773438 254.039062 " fill-opacity="1" fill-rule="nonzero"/></g></g></g></g><g clip-path="url(#65a198c4cd)"><g clip-path="url(#190890e508)"><g clip-path="url(#d8d0f49ad9)"><g clip-path="url(#ae398a636d)"><path fill="#000000" d="M 459.671875 356.285156 C 460.53125 356.285156 461.300781 370.929688 460.898438 389.082031 C 460.34375 407.316406 457.71875 421.699219 456.960938 421.691406 C 455.957031 421.609375 457.160156 406.90625 457.6875 388.992188 C 458.089844 370.957031 458.761719 356.28125 459.671875 356.285156 " fill-opacity="1" fill-rule="nonzero"/></g></g></g></g><g clip-path="url(#eda957b9c3)"><g clip-path="url(#ced79411eb)"><g clip-path="url(#3d78d6f498)"><g clip-path="url(#93ecc651da)"><path fill="#000000" d="M 460.007812 295.832031 C 460.960938 296.007812 460.398438 304.367188 459.738281 314.777344 C 459.070312 325.351562 457.0625 333.59375 456.253906 333.511719 C 455.320312 333.394531 455.886719 324.867188 456.550781 314.554688 C 457.195312 304.089844 459.210938 295.675781 460.007812 295.832031 " fill-opacity="1" fill-rule="nonzero"/></g></g></g></g><g clip-path="url(#95664fb206)"><g clip-path="url(#bf1ca7c2ee)"><g clip-path="url(#fa0db83f96)"><g clip-path="url(#1d4a51e9d4)"><path fill="#000000" d="M 456.871094 438.265625 C 457.058594 438.378906 456.789062 439.195312 456.101562 440.613281 C 455.769531 441.3125 455.351562 442.183594 454.664062 443.074219 C 453.96875 443.941406 453.320312 445.070312 452.28125 446.019531 C 451.773438 446.53125 451.238281 447.058594 450.710938 447.605469 C 450.160156 448.15625 449.492188 448.601562 448.839844 449.109375 C 447.550781 450.207031 445.980469 451.054688 444.367188 452.015625 C 441.039062 453.726562 437.144531 455.097656 432.953125 455.941406 C 424.539062 457.570312 416.824219 457.15625 411.386719 456.46875 C 405.910156 455.761719 402.664062 454.792969 402.722656 454.378906 C 402.765625 453.902344 406.183594 454.085938 411.550781 454.214844 C 416.933594 454.3125 424.382812 454.34375 432.324219 452.8125 C 436.265625 451.996094 439.90625 450.796875 443.054688 449.371094 C 444.558594 448.570312 446.058594 447.871094 447.300781 446.960938 C 447.925781 446.527344 448.59375 446.171875 449.125 445.703125 C 449.679688 445.246094 450.214844 444.8125 450.707031 444.402344 C 451.777344 443.625 452.503906 442.660156 453.261719 441.945312 C 454.042969 441.234375 454.597656 440.507812 455.058594 439.929688 C 456.023438 438.773438 456.664062 438.171875 456.871094 438.265625 " fill-opacity="1" fill-rule="nonzero"/></g></g></g></g><g clip-path="url(#422dcfed8a)"><g clip-path="url(#fceed154cf)"><g clip-path="url(#e34052ff07)"><g clip-path="url(#01fdf12547)"><path fill="#000000" d="M 392.796875 241.457031 C 407.222656 242.203125 418.980469 242.871094 418.976562 243.820312 C 418.984375 244.628906 407.171875 245.410156 392.59375 244.644531 C 377.984375 243.71875 366.527344 241.222656 366.527344 240.40625 C 366.636719 239.433594 378.445312 240.558594 392.796875 241.457031 " fill-opacity="1" fill-rule="nonzero"/></g></g></g></g><g clip-path="url(#d0043b805f)"><g clip-path="url(#bfdb3f75e2)"><g clip-path="url(#36ce91fdfb)"><g clip-path="url(#3a018eb273)"><path fill="#000000" d="M 381.21875 450.316406 C 386.910156 451.785156 390.46875 452.675781 390.40625 453.144531 C 390.332031 453.542969 386.644531 453.453125 380.738281 452.53125 C 377.796875 452.042969 374.296875 451.320312 370.472656 450.136719 C 366.664062 448.941406 362.546875 447.25 358.59375 444.632812 C 357.585938 444.023438 356.703125 443.265625 355.78125 442.554688 C 354.917969 441.792969 353.984375 440.953125 353.273438 440.171875 C 352.90625 439.777344 352.574219 439.375 352.214844 438.972656 L 351.972656 438.691406 L 351.894531 438.613281 L 351.824219 438.519531 L 351.796875 438.472656 L 351.671875 438.3125 L 351.199219 437.640625 C 350.597656 436.734375 349.941406 435.910156 349.484375 434.957031 C 347.476562 431.328125 346.597656 427.6875 346.1875 424.707031 C 345.425781 418.710938 345.652344 415.050781 346.03125 414.996094 C 346.527344 414.933594 347.132812 418.625 348.402344 424.277344 C 349.070312 427.089844 350.117188 430.339844 352.035156 433.472656 C 352.445312 434.3125 353.089844 435.015625 353.652344 435.800781 L 354.089844 436.386719 L 354.183594 436.539062 L 354.214844 436.5625 L 354.273438 436.617188 L 354.539062 436.921875 C 354.878906 437.300781 355.234375 437.683594 355.59375 438.085938 C 356.332031 438.824219 357.035156 439.414062 357.820312 440.101562 C 358.652344 440.734375 359.464844 441.421875 360.390625 441.972656 C 363.96875 444.378906 367.816406 446.042969 371.417969 447.328125 C 375.03125 448.613281 378.382812 449.539062 381.21875 450.316406 " fill-opacity="1" fill-rule="nonzero"/></g></g></g></g><g clip-path="url(#fbdec97fa7)"><g clip-path="url(#b20085c15a)"><g clip-path="url(#43b668ce38)"><g clip-path="url(#17ab3fd4e5)"><path fill="#000000" d="M 347.890625 237.15625 C 348.773438 237.15625 349.402344 252.011719 349.285156 270.363281 C 349.023438 288.664062 348.09375 303.523438 347.222656 303.523438 C 346.332031 303.511719 345.824219 288.644531 346.078125 270.332031 C 346.195312 252.011719 347.015625 237.167969 347.890625 237.15625 " fill-opacity="1" fill-rule="nonzero"/></g></g></g></g><g clip-path="url(#819ec04d9e)"><g clip-path="url(#43db84bec5)"><g clip-path="url(#0092c27edf)"><g clip-path="url(#46bf527580)"><path fill="#000000" d="M 345.859375 360.246094 C 346.753906 360.253906 347.410156 371.347656 347.332031 385.019531 C 347.257812 398.714844 346.480469 409.800781 345.585938 409.804688 C 344.707031 409.792969 344.050781 398.703125 344.125 385.007812 C 344.203125 371.332031 344.988281 360.242188 345.859375 360.246094 " fill-opacity="1" fill-rule="nonzero"/></g></g></g></g><g clip-path="url(#fcb3eec729)"><path fill="#666666" d="M 534.613281 539.835938 L 372.574219 539.835938 C 363.445312 539.835938 354.316406 536.769531 354.316406 532.988281 C 354.316406 531.097656 355.847656 529.5625 357.738281 529.5625 L 549.449219 529.5625 C 551.339844 529.5625 552.871094 531.097656 552.871094 532.988281 C 552.871094 536.769531 543.742188 539.835938 534.613281 539.835938 " fill-opacity="1" fill-rule="nonzero"/></g><g clip-path="url(#aa299ac72b)"><path fill="#666666" d="M 559.40625 479.660156 C 551.230469 484.378906 542.386719 486.78125 534.332031 486.492188 C 545.089844 471.222656 551.621094 452.777344 552.242188 432.832031 C 554.800781 432.367188 557.316406 432.109375 559.71875 432.109375 C 568.410156 432.109375 575.730469 435.144531 579.160156 441.085938 C 585.539062 452.128906 576.492188 469.792969 559.40625 479.660156 Z M 588.058594 435.949219 C 581.6875 424.917969 567.65625 420.1875 552.300781 422.402344 L 552.300781 413.167969 L 354.886719 413.167969 L 354.886719 429.714844 C 354.886719 470.007812 379.03125 504.664062 413.652344 520 L 413.652344 521.664062 C 413.652344 524.136719 415.65625 526.140625 418.132812 526.140625 L 489.054688 526.140625 C 491.527344 526.140625 493.53125 524.136719 493.53125 521.664062 L 493.53125 520 C 506.273438 514.355469 517.589844 506.089844 526.808594 495.894531 C 528.457031 496.238281 530.160156 496.492188 531.933594 496.636719 C 533.144531 496.734375 534.371094 496.78125 535.605469 496.78125 C 545.113281 496.78125 555.253906 493.917969 564.542969 488.550781 C 586.828125 475.683594 597.375 452.089844 588.058594 435.949219 " fill-opacity="1" fill-rule="nonzero"/></g><g clip-path="url(#b68b9eb6e0)"><path fill="#666666" d="M 459.644531 318.570312 C 473.671875 335.644531 479.917969 345.792969 475.71875 366.355469 C 474.421875 372.703125 473.128906 379.449219 470.339844 385.296875 L 470.25 385.488281 C 470.25 385.488281 473.378906 382.152344 476.015625 378.558594 C 492.433594 356.160156 499.253906 326.046875 476.953125 302.945312 C 462.878906 286.144531 454.835938 274.777344 453.617188 256.179688 C 453.570312 255.484375 453.539062 254.785156 453.515625 254.085938 C 453.242188 245.492188 454.980469 236.949219 458.195312 228.972656 L 458.371094 228.539062 C 458.167969 228.410156 457.964844 228.289062 457.761719 228.164062 C 456.316406 229.707031 453.953125 232.328125 452.097656 234.839844 C 429.011719 266.074219 442.382812 294 459.644531 318.570312 " fill-opacity="1" fill-rule="nonzero"/></g><path fill="#666666" d="M 434.332031 365.398438 C 443.59375 374.820312 448.636719 387.589844 448.320312 400.792969 L 448.238281 404.230469 C 448.378906 404.558594 449.25 403.066406 450.503906 400.589844 C 458.308594 385.152344 455.421875 366.453125 443.375 354.035156 C 433.015625 345.144531 426.917969 338.980469 424.273438 327.679688 C 424.164062 327.207031 424.0625 326.734375 423.96875 326.261719 C 422.953125 321.03125 423.171875 315.632812 424.328125 310.429688 L 424.632812 309.0625 C 424.632812 309.0625 422.535156 312.035156 421.164062 314.71875 C 410.164062 336.265625 421.222656 352.0625 434.332031 365.398438 " fill-opacity="1" fill-rule="nonzero"/><g clip-path="url(#fd383304cc)"><g clip-path="url(#ad20883c15)"><g clip-path="url(#ac1a471146)"><path fill="#290605" d="M 111.136719 493.578125 C 108.179688 476.84375 107.140625 461.828125 108.703125 446.644531 C 109.226562 441.582031 110.6875 439.632812 115.46875 438.148438 C 136.652344 431.570312 157.808594 424.851562 179.089844 418.433594 C 198.222656 412.714844 217.453125 407.339844 236.648438 401.757812 C 248.164062 398.414062 259.710938 395.027344 271.234375 391.71875 C 273.359375 391.097656 274.179688 389.800781 274.140625 387.71875 C 274.128906 387.035156 274.1875 386.339844 274.25 385.683594 C 274.757812 381.558594 276.507812 379.417969 280.550781 378.640625 C 283.367188 378.074219 286.265625 377.75 289.164062 377.640625 C 292.398438 377.613281 295.027344 378.847656 295.902344 382.007812 C 297.246094 386.816406 300.457031 387.878906 304.847656 387.652344 C 307.878906 387.480469 310.9375 387.667969 313.949219 387.789062 C 317.503906 387.925781 319.953125 389.585938 321.171875 393.046875 C 327.652344 411.183594 332.644531 429.691406 336.660156 448.546875 C 340.792969 468.101562 342.101562 487.96875 344.652344 507.730469 C 344.878906 509.851562 344.820312 511.984375 344.46875 514.101562 C 344.027344 517.5625 342.179688 519.972656 339.046875 521.421875 C 335.839844 522.847656 332.558594 524.066406 329.199219 525.050781 C 323.667969 526.773438 322.847656 527.851562 322.65625 533.574219 C 322.570312 535.96875 321.277344 537.417969 319.214844 538.210938 C 316.316406 539.328125 313.242188 540.082031 310.167969 540.4375 C 307.382812 540.78125 304.617188 539.785156 302.710938 537.742188 C 300.382812 535.339844 297.710938 534.691406 294.464844 534.859375 C 276.636719 535.886719 258.789062 536.804688 240.96875 537.683594 C 222.542969 538.59375 204.082031 539.296875 185.644531 540.140625 C 168.421875 540.914062 151.15625 541.660156 133.921875 542.582031 C 129.605469 542.828125 126.9375 541.171875 124.984375 537.40625 C 117.542969 523.039062 114.207031 507.449219 111.136719 493.578125 Z M 240.78125 465.433594 C 240.859375 465.886719 240.9375 466.339844 241.015625 466.792969 C 244.808594 486.230469 250.109375 505.257812 255.382812 524.324219 C 257.515625 531.984375 256.183594 530.957031 264.136719 530.71875 C 274.382812 530.40625 284.628906 530.3125 294.894531 529.492188 C 298.019531 529.234375 298.03125 529.304688 296.929688 526.289062 C 293.664062 517.28125 290.804688 508.128906 288.191406 498.933594 C 282.847656 480.089844 278.722656 461.003906 276.375 441.570312 C 274.644531 427.535156 273.792969 413.386719 273.847656 399.257812 C 273.859375 397.457031 273.5625 396.789062 271.542969 397.390625 C 261.71875 400.332031 251.84375 403.171875 242 406.007812 C 239.566406 406.722656 238.070312 408.242188 237.832031 410.804688 C 237.535156 414.0625 237.164062 417.296875 237.015625 420.566406 C 236.234375 435.683594 238.011719 450.609375 240.78125 465.433594 Z M 115.726562 489.753906 C 118.273438 503.714844 122.105469 517.414062 127.230469 530.675781 C 129.488281 536.582031 131.339844 537.917969 137.617188 537.757812 C 150.773438 537.40625 163.902344 536.695312 177.015625 535.882812 C 178.835938 535.78125 178.710938 535.082031 178.195312 533.769531 C 172.644531 519.9375 167.777344 505.875 164.300781 491.320312 C 159.589844 471.578125 157.722656 451.589844 160.132812 431.359375 C 160.445312 428.820312 160.273438 428.671875 157.789062 429.5 C 144.84375 433.742188 131.941406 438.011719 119.035156 442.28125 C 115.667969 443.410156 113.902344 446.09375 113.664062 449.269531 C 112.6875 463.269531 113.433594 477.222656 115.726562 489.753906 Z M 317.003906 528.621094 C 317.449219 528.289062 317.71875 527.773438 317.691406 527.203125 C 317.941406 523.882812 320.039062 522.292969 322.984375 521.417969 C 324.800781 520.882812 326.589844 520.210938 328.460938 519.777344 C 330.085938 519.386719 330.511719 518.734375 329.898438 517.078125 C 328.8125 514.167969 327.996094 511.140625 327.011719 508.179688 C 320.058594 487.75 314.734375 466.960938 311.933594 445.550781 C 309.835938 429.207031 308.792969 412.714844 308.757812 396.222656 C 308.738281 393.023438 308.5 392.882812 305.394531 392.847656 C 300.851562 392.816406 296.03125 393.871094 292.363281 389.363281 C 291.25 393.304688 291.132812 396.960938 291.042969 400.578125 C 290.785156 414.164062 292.195312 427.605469 294.136719 440.988281 C 297.714844 466.007812 302.261719 490.820312 310.484375 514.8125 C 312.058594 519.6875 313.925781 524.402344 317.003906 528.621094 Z M 178.746094 482.0625 C 179.382812 482.417969 179.832031 482.699219 180.296875 482.90625 C 185.792969 485.296875 191.089844 488.191406 196.039062 491.578125 C 200.769531 494.746094 204.882812 498.710938 209.679688 501.835938 C 214.671875 505.070312 219.707031 505.234375 224.660156 502.03125 C 229.800781 498.683594 231.996094 493.726562 231.464844 487.585938 C 231.007812 482.085938 227.871094 478.347656 223.515625 475.46875 C 222.007812 474.472656 221.96875 473.613281 222.644531 472.128906 C 223.976562 469.230469 225.382812 466.355469 226.132812 463.234375 C 227.371094 457.941406 226.265625 453.269531 222.222656 449.511719 C 218.183594 445.75 213.585938 445.617188 208.617188 447.277344 C 202.867188 449.21875 199.3125 453.402344 196.722656 458.574219 C 192.257812 467.457031 187.304688 475.992188 178.746094 482.0625 Z M 336.765625 516.597656 C 337.925781 514.164062 338.679688 512.085938 338.480469 509.707031 C 338.183594 506.375 338.140625 503.03125 337.847656 499.699219 C 336.0625 479.15625 333.324219 458.746094 329.21875 438.535156 C 326.8125 426.601562 323.992188 414.777344 320.007812 403.300781 C 318.847656 399.972656 317.320312 396.78125 314.964844 394.023438 C 314.175781 394.664062 314.339844 395.394531 314.308594 396.046875 C 313.824219 400.886719 313.738281 405.761719 314.007812 410.613281 C 315.628906 442.167969 320.820312 473.136719 330.648438 503.222656 C 332.117188 507.9375 334.199219 512.433594 336.765625 516.597656 Z M 284.027344 457.554688 C 285.023438 463.46875 286.195312 469.351562 287.507812 475.207031 C 291.761719 494.417969 297.4375 513.308594 304.433594 531.714844 C 304.753906 532.738281 305.347656 533.644531 306.09375 534.414062 C 307.800781 535.953125 309.757812 535.394531 311.449219 534.558594 C 313.210938 533.710938 311.675781 532.359375 311.335938 531.445312 C 304.660156 513.417969 298.96875 495.070312 294.683594 476.296875 C 289.921875 455.625 287 434.5625 286.003906 413.378906 C 285.574219 404.125 285.648438 394.855469 285.90625 385.59375 C 285.964844 384.070312 285.597656 383.628906 284.050781 383.644531 C 280.460938 383.699219 279.78125 384.355469 279.546875 388.574219 C 278.367188 411.722656 279.644531 434.730469 284.027344 457.554688 Z M 284.027344 457.554688 " fill-opacity="1" fill-rule="nonzero"/></g></g></g></svg>