<svg xmlns="http://www.w3.org/2000/svg" xmlns:xlink="http://www.w3.org/1999/xlink" width="1024" zoomAndPan="magnify" viewBox="0 0 768 767.999994" height="1024" preserveAspectRatio="xMidYMid meet" version="1.0"><defs><clipPath id="afa64ca7f8"><path d="M 179.4375 158 L 587 158 L 587 610.214844 L 179.4375 610.214844 Z M 179.4375 158 " clip-rule="nonzero"/></clipPath></defs><rect x="-76.8" width="921.6" fill="#ffffff" y="-76.799999" height="921.599993" fill-opacity="1"/><rect x="-76.8" width="921.6" fill="#ffffff" y="-76.799999" height="921.599993" fill-opacity="1"/><g clip-path="url(#afa64ca7f8)"><path fill="#000000" d="M 270.367188 610.214844 C 312.261719 610.214844 354.632812 602.261719 360.394531 587.019531 L 579.601562 587.019531 C 581.585938 587.019531 583.191406 585.410156 583.191406 583.429688 L 583.191406 495.863281 C 583.191406 493.882812 581.585938 492.273438 579.601562 492.273438 L 544.015625 492.273438 L 544.015625 402.179688 C 544.015625 387.8125 553.277344 372.601562 563.078125 356.496094 C 571.867188 342.058594 580.953125 327.128906 584.199219 311.367188 C 588.660156 289.703125 584.894531 268.234375 574.375 255.335938 C 568.722656 248.40625 561.660156 244.742188 553.945312 244.742188 C 537.761719 244.742188 525.367188 257.597656 519.578125 273.542969 C 513.792969 257.597656 501.398438 244.742188 485.214844 244.742188 C 477.503906 244.742188 470.4375 248.40625 464.785156 255.335938 C 454.265625 268.234375 450.503906 289.703125 454.960938 311.367188 C 457.230469 322.394531 462.375 333 468.042969 342.980469 C 455.621094 343.960938 447.742188 350.109375 443.378906 354.992188 L 376.839844 160.480469 C 376.53125 159.582031 375.878906 158.839844 375.023438 158.421875 C 374.171875 158 373.183594 157.9375 372.28125 158.246094 L 319.910156 176.144531 C 319.007812 176.449219 318.269531 177.105469 317.847656 177.957031 C 317.429688 178.8125 317.367188 179.796875 317.675781 180.699219 L 345.722656 262.691406 L 320.214844 285.691406 C 319.816406 286.050781 319.503906 286.496094 319.300781 286.992188 L 296.839844 341.601562 C 292.734375 341.261719 288.53125 340.996094 284.273438 340.8125 L 284.273438 286.226562 C 284.273438 285.691406 284.152344 285.164062 283.917969 284.679688 L 264.28125 243.707031 C 263.6875 242.460938 262.425781 241.671875 261.046875 241.671875 C 259.664062 241.671875 258.40625 242.460938 257.808594 243.707031 L 241.410156 277.921875 L 225.007812 243.707031 C 224.414062 242.460938 223.152344 241.671875 221.773438 241.671875 C 220.390625 241.671875 219.132812 242.460938 218.535156 243.707031 L 198.898438 284.679688 C 198.664062 285.164062 198.542969 285.691406 198.542969 286.230469 L 198.542969 350.339844 C 186.019531 354.9375 179.671875 360.636719 179.671875 367.300781 L 179.671875 583.429688 C 179.671875 601.015625 225.296875 610.214844 270.367188 610.214844 Z M 331.035156 596.363281 C 314.875 600.667969 293.332031 603.035156 270.367188 603.035156 C 247.402344 603.035156 225.855469 600.667969 209.699219 596.363281 C 192.835938 591.875 186.851562 586.589844 186.851562 583.429688 L 186.851562 378.449219 C 201.433594 388.75 236.058594 394.082031 270.367188 394.082031 C 304.675781 394.082031 339.300781 388.75 353.882812 378.449219 L 353.882812 583.429688 C 353.882812 586.589844 347.898438 591.875 331.035156 596.363281 Z M 205.726562 289.816406 L 237.816406 289.816406 L 237.816406 385.21875 C 227.410156 384.085938 217.863281 382.40625 209.699219 380.234375 C 208.296875 379.859375 206.976562 379.480469 205.726562 379.097656 Z M 277.089844 386.832031 C 274.863281 386.875 272.625 386.90625 270.367188 386.90625 C 261.632812 386.90625 253.105469 386.558594 244.996094 385.898438 L 244.996094 289.816406 L 277.089844 289.816406 Z M 355.035156 297.796875 L 329.257812 287.203125 L 353.207031 265.609375 Z M 361.070312 307.558594 L 380.144531 363.320312 L 380.144531 492.273438 L 361.0625 492.273438 L 361.0625 367.300781 C 361.0625 360.839844 355.078125 355.289062 343.300781 350.765625 Z M 438.636719 363.65625 L 438.636719 423.429688 L 428.152344 423.429688 L 428.152344 376.710938 C 428.152344 374.730469 426.546875 373.121094 424.5625 373.121094 L 401.398438 373.121094 C 399.414062 373.121094 397.808594 374.730469 397.808594 376.710938 L 397.808594 423.429688 L 387.324219 423.429688 L 387.324219 363.65625 C 389.042969 360.777344 396.5625 350.007812 412.980469 350.007812 C 429.429688 350.007812 436.945312 360.8125 438.636719 363.65625 Z M 479.46875 423.429688 L 463.480469 423.429688 L 463.480469 380.300781 L 479.46875 380.300781 Z M 497.132812 430.605469 L 497.132812 492.273438 L 445.820312 492.273438 L 445.820312 430.605469 Z M 438.636719 492.273438 L 387.324219 492.273438 L 387.324219 430.605469 L 438.636719 430.605469 Z M 420.972656 423.429688 L 404.988281 423.429688 L 404.988281 380.300781 L 420.972656 380.300781 Z M 340.566406 357.402344 C 350.296875 361.113281 353.882812 364.878906 353.882812 367.300781 C 353.882812 370.449219 347.933594 375.707031 331.199219 380.1875 Z M 576.011719 579.839844 L 361.0625 579.839844 L 361.0625 499.453125 L 576.011719 499.453125 Z M 504.3125 492.273438 L 504.3125 405.769531 L 536.835938 405.769531 L 536.835938 492.273438 Z M 553.945312 251.917969 C 560.871094 251.917969 565.851562 256.242188 568.808594 259.871094 C 577.859375 270.96875 581.140625 290.613281 577.164062 309.921875 C 574.171875 324.464844 565.414062 338.851562 556.945312 352.765625 C 547.359375 368.511719 538.273438 383.449219 536.996094 398.59375 L 523.171875 398.59375 L 523.171875 293.6875 C 523.167969 273.929688 535.808594 251.917969 553.945312 251.917969 Z M 470.351562 259.871094 C 473.308594 256.242188 478.289062 251.917969 485.214844 251.917969 C 503.351562 251.917969 515.988281 273.929688 515.988281 293.6875 L 515.988281 398.59375 L 504.3125 398.59375 L 504.3125 362.726562 C 504.3125 362.171875 504.183594 361.625 503.9375 361.128906 C 503.59375 360.4375 495.875 345.375 476.417969 343.125 C 470.234375 332.597656 464.347656 321.34375 461.996094 309.921875 C 458.019531 290.613281 461.300781 270.96875 470.351562 259.871094 Z M 471.472656 350.007812 C 487.90625 350.007812 495.429688 360.796875 497.132812 363.652344 L 497.132812 423.429688 L 486.648438 423.429688 L 486.648438 376.710938 C 486.648438 374.730469 485.039062 373.121094 483.058594 373.121094 L 459.890625 373.121094 C 457.910156 373.121094 456.300781 374.730469 456.300781 376.710938 L 456.300781 423.429688 L 445.820312 423.429688 L 445.820312 363.65625 C 447.527344 360.792969 455.042969 350.007812 471.472656 350.007812 Z M 325.628906 181.773438 L 371.207031 166.199219 L 377.320312 184.070312 C 377.3125 184.074219 377.300781 184.074219 377.289062 184.078125 L 361.3125 189.539062 C 359.4375 190.179688 358.4375 192.21875 359.078125 194.09375 C 359.585938 195.585938 360.980469 196.523438 362.472656 196.523438 C 362.859375 196.523438 363.25 196.460938 363.636719 196.328125 L 379.609375 190.871094 C 379.621094 190.867188 379.628906 190.859375 379.640625 190.855469 L 385 206.523438 C 384.992188 206.527344 384.980469 206.527344 384.96875 206.53125 L 360.496094 214.894531 C 358.621094 215.535156 357.617188 217.574219 358.261719 219.449219 C 358.769531 220.941406 360.164062 221.878906 361.65625 221.878906 C 362.042969 221.878906 362.433594 221.816406 362.820312 221.6875 L 387.289062 213.324219 C 387.300781 213.320312 387.3125 213.3125 387.320312 213.308594 L 392.679688 228.972656 L 378.980469 233.652344 C 377.105469 234.292969 376.105469 236.335938 376.746094 238.210938 C 377.253906 239.703125 378.648438 240.640625 380.140625 240.640625 C 380.527344 240.640625 380.917969 240.578125 381.304688 240.445312 L 395 235.765625 L 400.359375 251.425781 L 377.570312 259.214844 C 375.691406 259.855469 374.691406 261.894531 375.332031 263.769531 C 375.84375 265.261719 377.238281 266.199219 378.730469 266.199219 C 379.113281 266.199219 379.507812 266.136719 379.890625 266.003906 L 402.679688 258.21875 L 408.035156 273.878906 L 394.339844 278.558594 C 392.460938 279.199219 391.460938 281.242188 392.101562 283.117188 C 392.613281 284.609375 394.007812 285.546875 395.5 285.546875 C 395.882812 285.546875 396.277344 285.484375 396.660156 285.351562 L 410.359375 280.671875 L 415.714844 296.332031 L 392.925781 304.121094 C 391.050781 304.761719 390.050781 306.800781 390.691406 308.675781 C 391.199219 310.167969 392.59375 311.105469 394.085938 311.105469 C 394.472656 311.105469 394.863281 311.042969 395.25 310.910156 L 418.039062 303.125 L 423.394531 318.785156 L 409.695312 323.464844 C 407.820312 324.105469 406.820312 326.148438 407.460938 328.023438 C 407.96875 329.511719 409.363281 330.449219 410.855469 330.449219 C 411.242188 330.449219 411.632812 330.390625 412.019531 330.257812 L 425.714844 325.574219 L 433.597656 348.617188 C 428.585938 345.40625 421.8125 342.839844 412.972656 342.839844 C 398.550781 342.839844 389.628906 349.671875 384.871094 354.992188 L 361.605469 286.976562 L 359.945312 257.730469 C 359.867188 256.351562 359.003906 255.136719 357.722656 254.613281 C 356.445312 254.089844 354.980469 254.34375 353.953125 255.269531 L 351.511719 257.46875 Z M 324.574219 293.042969 L 354.257812 305.238281 L 322.605469 382.195312 C 311.871094 384.394531 299.429688 385.871094 286.128906 386.519531 Z M 293.976562 348.570312 L 284.269531 372.164062 L 284.269531 347.996094 C 287.546875 348.140625 290.789062 348.328125 293.976562 348.570312 Z M 261.042969 253.566406 L 274.980469 282.640625 L 247.109375 282.640625 Z M 221.769531 253.566406 L 235.707031 282.640625 L 207.835938 282.640625 Z M 198.542969 358.039062 L 198.542969 376.566406 C 190.101562 373.105469 186.851562 369.625 186.851562 367.300781 C 186.851562 365.015625 190.03125 361.539062 198.542969 358.039062 Z M 333.597656 415.808594 C 334.367188 417.636719 333.507812 419.738281 331.683594 420.503906 C 330.699219 420.917969 307.222656 430.605469 270.367188 430.605469 C 233.507812 430.605469 210.03125 420.917969 209.050781 420.503906 C 207.222656 419.734375 206.363281 417.632812 207.132812 415.804688 C 207.902344 413.976562 210.003906 413.117188 211.835938 413.886719 C 212.058594 413.980469 235.0625 423.429688 270.367188 423.429688 C 305.671875 423.429688 328.671875 413.980469 328.902344 413.886719 C 330.726562 413.121094 332.832031 413.980469 333.597656 415.808594 Z M 333.597656 550.109375 C 334.367188 551.9375 333.507812 554.039062 331.683594 554.804688 C 330.699219 555.21875 307.222656 564.90625 270.367188 564.90625 C 233.507812 564.90625 210.03125 555.21875 209.050781 554.804688 C 207.222656 554.039062 206.363281 551.933594 207.132812 550.105469 C 207.902344 548.277344 210.003906 547.417969 211.835938 548.191406 C 212.058594 548.28125 235.0625 557.730469 270.367188 557.730469 C 305.671875 557.730469 328.671875 548.28125 328.902344 548.1875 C 330.726562 547.421875 332.832031 548.285156 333.597656 550.109375 Z M 392.359375 524.039062 C 392.359375 522.058594 393.964844 520.453125 395.949219 520.453125 L 541.125 520.453125 C 543.109375 520.453125 544.71875 522.058594 544.71875 524.039062 C 544.71875 526.023438 543.109375 527.628906 541.125 527.628906 L 395.949219 527.628906 C 393.964844 527.628906 392.359375 526.023438 392.359375 524.039062 Z M 543.882812 335.988281 C 544.507812 336.113281 545.132812 336.175781 545.761719 336.175781 C 549.890625 336.175781 554.082031 333.457031 557.746094 328.339844 C 561.378906 323.261719 564.257812 316.195312 565.84375 308.433594 C 569.433594 290.902344 565.40625 276.300781 556.476562 274.476562 C 551.761719 273.507812 546.835938 276.226562 542.613281 282.121094 C 538.976562 287.199219 536.101562 294.265625 534.511719 302.027344 C 532.921875 309.785156 532.792969 317.414062 534.140625 323.507812 C 535.703125 330.589844 539.164062 335.023438 543.882812 335.988281 Z M 541.546875 303.464844 C 542.917969 296.769531 545.433594 290.515625 548.449219 286.300781 C 550.625 283.261719 552.933594 281.464844 554.609375 281.464844 C 554.757812 281.464844 554.898438 281.480469 555.035156 281.507812 C 558.554688 282.226562 561.777344 292.515625 558.8125 306.996094 C 557.441406 313.691406 554.921875 319.949219 551.90625 324.160156 C 549.539062 327.464844 547.019531 329.300781 545.320312 328.957031 C 543.625 328.609375 542.027344 325.929688 541.152344 321.960938 C 540.03125 316.902344 540.175781 310.160156 541.546875 303.464844 Z M 481.414062 328.339844 C 485.078125 333.457031 489.269531 336.179688 493.398438 336.179688 C 494.027344 336.179688 494.652344 336.117188 495.277344 335.988281 C 504.207031 334.160156 508.238281 319.5625 504.648438 302.027344 C 503.058594 294.269531 500.183594 287.199219 496.546875 282.125 C 492.324219 276.226562 487.402344 273.511719 482.683594 274.476562 C 473.753906 276.304688 469.726562 290.902344 473.3125 308.4375 C 474.902344 316.195312 477.777344 323.261719 481.414062 328.339844 Z M 484.125 281.507812 C 485.820312 281.15625 488.34375 282.996094 490.707031 286.300781 C 493.726562 290.515625 496.242188 296.769531 497.613281 303.464844 C 500.578125 317.949219 497.355469 328.234375 493.835938 328.957031 C 492.136719 329.304688 489.617188 327.464844 487.253906 324.160156 C 484.234375 319.949219 481.71875 313.691406 480.347656 306.996094 C 477.386719 292.515625 480.605469 282.226562 484.125 281.507812 Z M 525.78125 421.199219 C 525.78125 424.621094 523.003906 427.398438 519.578125 427.398438 C 516.152344 427.398438 513.378906 424.621094 513.378906 421.199219 C 513.378906 417.777344 516.152344 415 519.578125 415 C 523.003906 415 525.78125 417.777344 525.78125 421.199219 Z M 525.78125 421.199219 " fill-opacity="1" fill-rule="nonzero"/></g></svg>